<?xml version='1.0' encoding='utf-8'?>
<svg width="204.292922mm" height="161.382306mm" viewBox="-68.49938 -58.773714 127.683076 100.863941" version="1.1" xmlns="http://www.w3.org/2000/svg">
  <g transform="scale(1,-1)" stroke-linecap="round">
    <g fill="none" stroke="rgb(198,198,198)" stroke-width="0.075" id="hidden">
      <line x1="-64.65563" y1="-9.77877" x2="-42.312739" y2="2.869643" />
      <path d="M -52.896214,40.079165 A 2.0,1.071766011534193 73.34730319440168 0,0 -52.323074,40.172462" />
      <path d="M -52.323074,40.172462 A 2.0,1.071766011534193 73.34730319440168 1,0 -53.469353,36.340225" />
      <path d="M -53.469353,36.340225 A 2.0,1.071766011534193 73.34730319440168 0,0 -52.896214,40.079165" />
      <line x1="-64.170301" y1="-10.470786" x2="-41.82741" y2="2.177628" />
      <path d="M -42.312739,2.869643 A 20.0,8.229950296872243 180.0 0,0 -14.37568,4.687732" />
      <path d="M -41.82741,2.177628 A 19.4,7.983051787966076 180.0 0,0 -14.728462,3.941174" />
      <line x1="-14.728462" y1="3.941174" x2="46.74658" y2="-14.446914" />
      <path d="M 46.74658,-14.446914 A 19.4,7.983051787966077 -180.0 0,0 52.650054,-24.508571" />
      <path d="M 5.396186,-11.260867 A 1.35,0.5555216450388765 2.986575967500193e-15 0,1 3.252425,-11.710218" />
      <path d="M 3.252425,-11.710218 A 1.35,0.5555216450388765 2.986575967500193e-15 0,1 5.952425,-11.710218" />
      <path d="M 5.952425,-11.710218 A 1.35,0.5555216450388765 2.986575967500193e-15 0,1 5.396186,-11.260867" />
      <line x1="-14.37568" y1="4.687732" x2="47.099363" y2="-13.700356" />
      <path d="M 26.068427,21.208607 A 12.0,8.84668778214127 -60.48559995966251 0,0 22.273549,13.669207" />
      <path d="M 22.273549,13.669207 A 12.0,8.84668778214127 -60.48559995966251 0,0 21.730394,13.394337" />
      <path d="M 9.934942,34.230507 A 12.0,8.84668778214127 -60.48559995966251 0,0 10.450134,34.554773" />
      <path d="M 10.450134,34.554773 A 12.0,8.84668778214127 -60.48559995966251 0,0 26.068427,21.208607" />
      <path d="M 47.099363,-13.700356 A 20.0,8.229950296872245 -180.0 0,0 55.339946,-20.357416" />
      <line x1="26.748051" y1="-30.374514" x2="49.090943" y2="-17.7261" />
      <path d="M 38.507468,9.093337 A 2.0,1.0717660115341934 -106.6526968055983 0,1 39.080607,12.832278" />
      <path d="M 39.080607,12.832278 A 2.0000000838705674,1.071766056479005 -106.6526968055983 0,1 37.934329,9.00004" />
      <path d="M 37.934329,9.00004 A 2.0,1.0717660115341934 -106.6526968055983 0,1 38.507468,9.093337" />
      <path d="M 52.336548,-13.752842 A 17.0,6.995457752341407 180.0 0,0 49.090943,-17.7261" />
      <line x1="52.336548" y1="28.172059" x2="52.336548" y2="-13.752842" />
      <path d="M 51.402198,-11.321704 A 5.0,2.057487574218061 2.4188247508525343e-15 0,1 42.911623,-12.794835" />
      <path d="M 42.911623,-12.794835 A 5.0,2.057487574218061 2.4188247508525343e-15 0,1 52.336548,-13.752842" />
      <line x1="51.402198" y1="30.603197" x2="51.402198" y2="-11.321704" />
      <path d="M 45.33545,-7.954475 A 17.0,6.995457752341407 180.0 0,0 51.402198,-11.321704" />
      <line x1="-16.139592" y1="10.433614" x2="-1.840466" y2="6.156535" />
      <line x1="26.748051" y1="-2.39471" x2="45.33545" y2="-7.954475" />
      <line x1="28.348925" y1="3.506321" x2="28.348925" y2="12.456649" />
      <line x1="26.748051" y1="3.985166" x2="28.348925" y2="3.506321" />
      <path d="M -25.7952,11.769172 A 17.0,6.995457752341407 180.0 0,0 -16.139592,10.433614" />
      <line x1="-25.7952" y1="53.694073" x2="-25.7952" y2="11.769172" />
      <path d="M -25.7952,11.769172 A 5.0,2.057487574218061 -180.0 0,0 -23.123298,9.948327" />
      <path d="M -23.123298,9.948327 A 5.0,2.057487574218061 -180.0 0,0 -30.601692,8.161387" />
      <path d="M -33.123298,9.948327 A 5.0,2.057487574218061 -180.0 0,0 -31.703226,11.38469" />
      <line x1="-31.703226" y1="53.30959" x2="-31.703226" y2="11.38469" />
      <path d="M -33.123298,11.152197 A 17.0,6.995457752341407 180.0 0,0 -31.703226,11.38469" />
      <path d="M -27.031307,40.609666 A 1.35,0.5555216450388765 -7.017033116719356e-16 0,1 -26.773298,40.936297" />
      <path d="M -26.773298,40.936297 A 1.35,0.5555216450388765 -7.017033116719356e-16 0,1 -29.473298,40.936297" />
      <path d="M -29.473298,40.936297 A 1.35,0.5555216450388765 -7.017033116719356e-16 0,1 -27.031307,40.609666" />
      <path d="M 49.003614,17.866504 A 1.35,0.5555216450388765 -7.017033116719356e-16 0,1 49.261623,18.193135" />
      <path d="M 49.261623,18.193135 A 1.3500000000000012,0.5555216450388769 -7.017033116719356e-16 0,1 46.561623,18.193135" />
      <path d="M 46.561623,18.193135 A 1.35,0.5555216450388765 -7.017033116719356e-16 0,1 49.003614,17.866504" />
      <path d="M -1.840466,-17.067345 A 15.899999999999999,6.542810486013433 -7.017033116719356e-16 0,1 -30.601692,-13.220363" />
      <path d="M 9.306192,-1.756107 A 8.0,3.2919801187488975 2.986575967500193e-15 0,1 -3.397575,-4.418931" />
      <path d="M -3.397575,-4.418931 A 8.0,3.2919801187488975 2.986575967500193e-15 0,1 -1.840466,-6.370365" />
      <path d="M 12.602425,-4.418931 A 8.0,3.2919801187488975 2.986575967500193e-15 0,1 9.306192,-1.756107" />
      <path d="M -7.305887,-20.188481 A 12.899999999999999,5.3083179414825965 -7.017033116719356e-16 0,1 -4.840466,-17.067345" />
      <path d="M -4.840466,-17.067345 A 12.899999999999999,5.3083179414825965 -7.017033116719356e-16 0,1 -27.447052,-13.571015" />
      <path d="M -7.305887,-19.505951 A 12.0,4.937970178123346 -7.017033116719356e-16 0,1 -5.740466,-17.067345" />
      <path d="M -5.740466,-17.067345 A 12.0,4.937970178123346 -7.017033116719356e-16 0,1 -27.447052,-14.163962" />
      <path d="M -7.305887,9.659197 A 12.0,4.937970178123346 -7.017033116719356e-16 0,1 -5.740466,12.097803" />
      <path d="M -5.740466,12.097803 A 12.0,4.937970178123346 -7.017033116719356e-16 0,1 -6.165367,13.400184" />
      <path d="M 5.396186,-3.058169 A 1.35,0.5555216450388765 2.986575967500193e-15 0,1 3.252425,-3.50752" />
      <path d="M 3.252425,-3.50752 A 1.35,0.5555216450388765 2.986575967500193e-15 0,1 5.952425,-3.50752" />
      <path d="M 5.952425,-3.50752 A 1.35,0.5555216450388765 2.986575967500193e-15 0,1 5.396186,-3.058169" />
      <line x1="0.846933" y1="42.720541" x2="1.552498" y2="43.119964" />
      <line x1="1.552498" y1="43.119964" x2="29.05449" y2="34.893714" />
      <line x1="28.348925" y1="34.494291" x2="29.05449" y2="34.893714" />
      <line x1="29.05449" y1="3.905744" x2="29.05449" y2="34.893714" />
      <line x1="28.348925" y1="3.506321" x2="29.05449" y2="3.905744" />
      <line x1="26.748051" y1="4.595634" x2="29.05449" y2="3.905744" />
      <line x1="1.552498" y1="42.509496" x2="1.552498" y2="43.119964" />
      <path d="M -1.840466,1.178146 A 8.0,3.2919801187488975 2.986575967500193e-15 0,1 -3.397575,-0.773288" />
      <path d="M -3.397575,-0.773288 A 8.0,3.2919801187488975 2.986575967500193e-15 0,1 -1.840466,-2.724721" />
      <line x1="-49.896428" y1="39.446617" x2="-52.323074" y2="40.172462" />
      <line x1="-51.042707" y1="35.614379" x2="-53.469353" y2="36.340225" />
      <line x1="42.911623" y1="-12.794835" x2="42.911623" y2="20.700659" />
      <line x1="-23.123298" y1="9.948327" x2="-23.123298" y2="21.899911" />
      <line x1="-26.773298" y1="40.936297" x2="-26.773298" y2="51.873227" />
      <line x1="-29.473298" y1="40.936297" x2="-29.473298" y2="51.873227" />
      <line x1="49.261623" y1="18.193135" x2="49.261623" y2="29.130065" />
      <line x1="46.561623" y1="18.193135" x2="46.561623" y2="29.130065" />
      <line x1="-4.840466" y1="-17.067345" x2="-4.840466" y2="15.743447" />
      <line x1="-5.740466" y1="-17.067345" x2="-5.740466" y2="12.097803" />
      <line x1="5.952425" y1="-11.710218" x2="5.952425" y2="-3.50752" />
      <line x1="3.252425" y1="-11.710218" x2="3.252425" y2="-3.50752" />
      <line x1="21.215202" y1="13.070071" x2="22.273549" y2="13.669207" />
      <line x1="9.391787" y1="33.955637" x2="10.450134" y2="34.554773" />
      <line x1="37.934329" y1="9.00004" x2="40.360975" y2="8.274195" />
      <line x1="39.080607" y1="12.832278" x2="41.507254" y2="12.106432" />
      <line x1="-3.397575" y1="-4.418931" x2="-3.397575" y2="-0.773288" />
      <line x1="-42.312739" y1="2.869643" x2="-42.312739" y2="51.538984" />
      <line x1="-42.312739" y1="2.869643" x2="-41.82741" y2="2.177628" />
      <line x1="-14.37568" y1="4.687732" x2="-14.37568" y2="53.357073" />
      <line x1="-14.37568" y1="4.687732" x2="-14.728462" y2="3.941174" />
      <line x1="47.099363" y1="-13.700356" x2="47.099363" y2="34.968985" />
      <line x1="49.090943" y1="-17.7261" x2="49.090943" y2="24.1988" />
      <line x1="45.33545" y1="-7.954475" x2="45.33545" y2="30.893433" />
      <line x1="-16.139592" y1="10.433614" x2="-16.139592" y2="22.25301" />
      <line x1="47.099363" y1="-13.700356" x2="46.74658" y2="-14.446914" />
    </g>
    <g fill="none" stroke="rgb(12,12,12)" stroke-width="0.1875" id="visible">
      <line x1="-64.65563" y1="38.890571" x2="-42.312739" y2="51.538984" />
      <line x1="-64.65563" y1="38.890571" x2="-64.65563" y2="-9.77877" />
      <line x1="-64.65563" y1="-9.77877" x2="-64.170301" y2="-10.470786" />
      <path d="M -14.37568,53.357073 A 20.0,8.229950296872243 -7.017033116719356e-16 0,1 -42.312739,51.538984" />
      <line x1="-14.37568" y1="53.357073" x2="47.099363" y2="34.968985" />
      <path d="M 51.517589,23.472955 A 20.0,8.229950296872243 -7.017033116719356e-16 0,1 55.339946,28.311925" />
      <path d="M 55.339946,28.311925 A 20.0,8.229950296872243 -7.017033116719356e-16 0,1 47.099363,34.968985" />
      <line x1="29.174698" y1="10.824541" x2="51.517589" y2="23.472955" />
      <line x1="29.174698" y1="10.824541" x2="26.748051" y2="11.550387" />
      <line x1="26.748051" y1="11.550387" x2="49.090943" y2="24.1988" />
      <path d="M 52.336548,28.172059 A 17.0,6.995457752341407 180.0 0,0 49.090943,24.1988" />
      <path d="M 52.336548,28.172059 A 5.0,2.057487574218061 -180.0 0,0 42.911623,29.130065" />
      <path d="M 42.911623,29.130065 A 5.0,2.057487574218061 -180.0 0,0 51.402198,30.603197" />
      <path d="M 45.33545,33.970426 A 17.0,6.995457752341407 180.0 0,0 51.402198,30.603197" />
      <line x1="-16.139592" y1="52.358514" x2="45.33545" y2="33.970426" />
      <path d="M -25.7952,53.694073 A 17.0,6.995457752341407 180.0 0,0 -16.139592,52.358514" />
      <path d="M -31.703226,53.30959 A 5.0,2.0574875742180607 3.3040560715261724e-16 0,1 -33.123298,51.873227" />
      <path d="M -33.123298,51.873227 A 5.0,2.0574875742180607 3.3040560715261724e-16 0,1 -23.123298,51.873227" />
      <path d="M -23.123298,51.873227 A 5.0,2.0574875742180607 3.3040560715261724e-16 0,1 -25.7952,53.694073" />
      <path d="M -39.886092,50.813139 A 17.0,6.995457752341407 180.0 0,0 -31.703226,53.30959" />
      <line x1="-62.228984" y1="38.164725" x2="-39.886092" y2="50.813139" />
      <line x1="-62.228984" y1="38.164725" x2="-64.65563" y2="38.890571" />
      <path d="M -27.031307,51.546597 A 1.35,0.5555216450388765 -7.017033116719356e-16 0,1 -26.773298,51.873227" />
      <path d="M -26.773298,51.873227 A 1.35,0.5555216450388765 -7.017033116719356e-16 0,1 -29.473298,51.873227" />
      <path d="M -29.473298,51.873227 A 1.35,0.5555216450388765 -7.017033116719356e-16 0,1 -27.031307,51.546597" />
      <path d="M 49.003614,28.803435 A 1.35,0.5555216450388765 -7.017033116719356e-16 0,1 49.261623,29.130065" />
      <path d="M 49.261623,29.130065 A 1.3500000000000012,0.5555216450388769 -7.017033116719356e-16 0,1 46.561623,29.130065" />
      <path d="M 46.561623,29.130065 A 1.35,0.5555216450388765 -7.017033116719356e-16 0,1 49.003614,28.803435" />
      <line x1="-64.170301" y1="-10.470786" x2="28.689369" y2="-38.246478" />
      <line x1="28.689369" y1="-38.246478" x2="29.174698" y2="-37.8448" />
      <line x1="29.174698" y1="10.824541" x2="29.174698" y2="-37.8448" />
      <line x1="26.748051" y1="11.550387" x2="26.748051" y2="-30.374514" />
      <line x1="26.748051" y1="-30.374514" x2="-4.87924" y2="-20.914326" />
      <line x1="-4.87924" y1="-20.914326" x2="-4.87924" y2="11.896465" />
      <line x1="-4.87924" y1="11.896465" x2="-7.305887" y2="12.622311" />
      <line x1="-7.305887" y1="-20.188481" x2="-7.305887" y2="12.622311" />
      <line x1="-7.305887" y1="-20.188481" x2="-8.033881" y2="-19.970727" />
      <line x1="-8.033881" y1="-19.970727" x2="-8.033881" y2="9.194421" />
      <line x1="-8.033881" y1="9.194421" x2="-27.447052" y2="15.001186" />
      <line x1="-27.447052" y1="-14.163962" x2="-27.447052" y2="15.001186" />
      <line x1="-27.447052" y1="-14.163962" x2="-28.175046" y2="-13.946209" />
      <line x1="-28.175046" y1="-13.946209" x2="-28.175046" y2="18.864583" />
      <line x1="-28.175046" y1="18.864583" x2="-30.601692" y2="19.590429" />
      <line x1="-30.601692" y1="-13.220363" x2="-30.601692" y2="19.590429" />
      <line x1="-30.601692" y1="-13.220363" x2="-62.228984" y2="-3.760175" />
      <line x1="-62.228984" y1="38.164725" x2="-62.228984" y2="-3.760175" />
      <path d="M -50.469567,39.35332 A 2.0,1.071766011534193 73.34730319440168 0,0 -49.896428,39.446617" />
      <path d="M -49.896428,39.446617 A 2.0000002271553146,1.0717661332628656 73.34730319440168 1,0 -51.042707,35.614379" />
      <path d="M -51.042707,35.614379 A 2.0,1.071766011534193 73.34730319440168 0,0 -50.469567,39.35332" />
      <path d="M 52.650054,-24.508571 A 19.4,7.983051787966077 -180.0 0,0 51.03226,-25.598064" />
      <line x1="51.03226" y1="-25.598064" x2="28.689369" y2="-38.246478" />
      <path d="M 21.730394,13.394337 A 12.0,8.84668778214127 -60.48559995966251 0,0 9.934942,34.230507" />
      <path d="M 55.339946,-20.357416 A 20.0,8.229950296872245 -180.0 0,0 53.185419,-24.073198" />
      <path d="M 53.185419,-24.073198 A 20.0,8.229950296872245 -180.0 0,0 51.517589,-25.196387" />
      <line x1="51.517589" y1="-25.196387" x2="29.174698" y2="-37.8448" />
      <path d="M 40.934114,8.367492 A 2.0,1.0717660115341934 -106.6526968055983 0,1 41.507254,12.106432" />
      <path d="M 41.507254,12.106432 A 2.0,1.0717660115341934 -106.6526968055983 0,1 40.360975,8.274195" />
      <path d="M 40.360975,8.274195 A 2.0,1.0717660115341934 -106.6526968055983 0,1 40.934114,8.367492" />
      <line x1="-1.840466" y1="6.156535" x2="26.748051" y2="-2.39471" />
      <line x1="0.846933" y1="42.720541" x2="28.348925" y2="34.494291" />
      <line x1="28.348925" y1="12.456649" x2="28.348925" y2="34.494291" />
      <line x1="0.846933" y1="11.732571" x2="26.748051" y2="3.985166" />
      <line x1="0.846933" y1="11.732571" x2="0.846933" y2="42.720541" />
      <path d="M -30.601692,8.161387 A 5.0,2.057487574218061 -180.0 0,0 -33.123298,9.948327" />
      <path d="M -39.886092,8.888238 A 17.0,6.995457752341407 180.0 0,0 -33.123298,11.152197" />
      <line x1="-62.228984" y1="-3.760175" x2="-39.886092" y2="8.888238" />
      <path d="M -4.87924,-20.914326 A 15.899999999999999,6.542810486013433 -7.017033116719356e-16 0,1 -1.840466,-17.067345" />
      <path d="M -1.840466,-6.370365 A 8.0,3.2919801187488975 2.986575967500193e-15 0,1 12.602425,-4.418931" />
      <path d="M -4.87924,11.896465 A 15.899999999999999,6.542810486013433 -7.017033116719356e-16 0,1 -1.840466,15.743447" />
      <path d="M -1.840466,15.743447 A 15.899999999999999,6.542810486013433 -7.017033116719356e-16 0,1 -30.601692,19.590429" />
      <path d="M -7.305887,12.622311 A 12.899999999999999,5.3083179414825965 -7.017033116719356e-16 0,1 -4.840466,15.743447" />
      <path d="M -4.840466,15.743447 A 12.899999999999999,5.3083179414825965 -7.017033116719356e-16 0,1 -28.175046,18.864583" />
      <path d="M -27.447052,-13.571015 A 12.899999999999999,5.3083179414825965 -7.017033116719356e-16 0,1 -28.175046,-13.946209" />
      <path d="M -8.033881,-19.970727 A 12.0,4.937970178123346 -7.017033116719356e-16 0,1 -7.305887,-19.505951" />
      <path d="M -8.033881,9.194421 A 12.0,4.937970178123346 -7.017033116719356e-16 0,1 -7.305887,9.659197" />
      <path d="M -6.165367,13.400184 A 12.0,4.937970178123346 -7.017033116719356e-16 0,1 -27.447052,15.001186" />
      <path d="M 25.01008,20.609472 A 12.0,8.84668778214127 -60.48559995966251 0,0 21.215202,13.070071" />
      <path d="M 21.215202,13.070071 A 12.000000097943555,8.846687854347607 -60.48559995966251 0,0 9.391787,33.955637" />
      <path d="M 9.391787,33.955637 A 12.0,8.84668778214127 -60.48559995966251 0,0 25.01008,20.609472" />
      <line x1="0.846933" y1="11.732571" x2="1.552498" y2="12.131994" />
      <line x1="1.552498" y1="12.131994" x2="26.748051" y2="4.595634" />
      <line x1="1.552498" y1="12.131994" x2="1.552498" y2="42.509496" />
      <path d="M 9.306192,1.889536 A 8.0,3.2919801187488975 2.986575967500193e-15 0,1 -1.840466,1.178146" />
      <path d="M -1.840466,-2.724721 A 8.0,3.2919801187488975 2.986575967500193e-15 0,1 12.602425,-0.773288" />
      <path d="M 12.602425,-0.773288 A 8.0,3.2919801187488975 2.986575967500193e-15 0,1 9.306192,1.889536" />
      <line x1="51.517589" y1="-25.196387" x2="51.517589" y2="23.472955" />
      <line x1="45.33545" y1="30.893433" x2="45.33545" y2="33.970426" />
      <line x1="-16.139592" y1="22.25301" x2="-16.139592" y2="52.358514" />
      <line x1="-39.886092" y1="8.888238" x2="-39.886092" y2="50.813139" />
      <line x1="51.517589" y1="-25.196387" x2="51.03226" y2="-25.598064" />
      <line x1="55.339946" y1="28.311925" x2="55.339946" y2="-20.357416" />
      <line x1="42.911623" y1="20.700659" x2="42.911623" y2="29.130065" />
      <line x1="-23.123298" y1="21.899911" x2="-23.123298" y2="51.873227" />
      <line x1="-33.123298" y1="9.948327" x2="-33.123298" y2="51.873227" />
      <line x1="-1.840466" y1="-17.067345" x2="-1.840466" y2="15.743447" />
      <line x1="52.650054" y1="-24.508571" x2="53.185419" y2="-24.073198" />
      <line x1="12.602425" y1="-4.418931" x2="12.602425" y2="-0.773288" />
    </g>
  </g>
</svg>