<?xml version='1.0' encoding='utf-8'?>
<svg width="203.285872mm" height="186.191855mm" viewBox="-78.093332 -84.797738 156.373748 143.224504" version="1.1" xmlns="http://www.w3.org/2000/svg">
  <g transform="scale(1,-1)" stroke-linecap="round">
    <g fill="none" stroke="rgb(198,198,198)" stroke-width="0.0923076923076923" id="h">
      <line x1="-68.881981" y1="-15.82693" x2="-20.943561" y2="11.713897" />
      <path d="M -73.362563,-21.718324 A 20.0,9.340022822044498 -180.0 0,0 -68.881981,-15.82693" />
      <line x1="-68.416398" y1="-16.534226" x2="-20.477978" y2="11.006601" />
      <path d="M -20.943561,11.713897 A 20.0,9.340022822044498 180.0 0,0 7.191232,13.070089" />
      <path d="M -69.836354,-27.033628 A 19.4,9.059822137383161 -180.0 0,0 -68.416398,-16.534226" />
      <path d="M -20.477978,11.006601 A 19.4,9.059822137383163 180.0 0,0 6.81277,12.322108" />
      <line x1="6.81277" y1="12.322108" x2="65.78656" y2="-10.065189" />
      <path d="M 65.78656,-10.065189 A 19.4,9.059822137383161 180.0 0,0 70.023438,-21.880098" />
      <path d="M -38.760446,-16.76355 A 1.35,0.6304515404880036 -1.7829462567300183e-16 0,1 -38.777463,-16.863336" />
      <path d="M -38.777463,-16.863336 A 1.35,0.6304515404880036 -1.7829462567300183e-16 1,1 -36.077463,-16.863336" />
      <path d="M -36.077463,-16.863336 A 1.35,0.6304515404880036 -1.7829462567300183e-16 0,1 -38.760446,-16.76355" />
      <path d="M 14.126783,-36.840301 A 1.35,0.6304515404880037 -3.811857271891175e-15 0,1 14.995337,-36.251304" />
      <path d="M 14.995337,-36.251304 A 1.35,0.6304515404880037 -3.811857271891175e-15 0,1 12.295337,-36.251304" />
      <path d="M 12.295337,-36.251304 A 1.35,0.6304515404880037 -3.811857271891175e-15 0,1 14.126783,-36.840301" />
      <path d="M 24.91429,-5.412487 A 1.35,0.6304515404880037 -5.05249871044796e-16 0,1 22.712753,-5.901699" />
      <path d="M 22.712753,-5.901699 A 1.35,0.6304515404880037 -5.05249871044796e-16 0,1 25.412753,-5.901699" />
      <path d="M 25.412753,-5.901699 A 1.35,0.6304515404880037 -5.05249871044796e-16 0,1 24.91429,-5.412487" />
      <line x1="7.191232" y1="13.070089" x2="66.165021" y2="-9.317208" />
      <line x1="21.934679" y1="21.090818" x2="21.934679" y2="49.387033" />
      <path d="M 24.262592,51.156094 A 3.0,2.0584724726314594 119.87755133985365 0,1 22.768148,51.1046" />
      <path d="M 22.768148,51.1046 A 3.0,2.0584724726314594 119.87755133985365 0,1 21.934679,49.387033" />
      <line x1="24.262592" y1="51.156094" x2="49.093661" y2="41.729864" />
      <path d="M 51.421574,38.193385 A 3.0,2.0584724726314594 119.87755133985365 0,1 49.093661,41.729864" />
      <line x1="51.421574" y1="9.89717" x2="51.421574" y2="38.193385" />
      <path d="M 49.093661,8.128109 A 3.0,2.0584724726314594 119.87755133985365 0,1 50.588105,8.179603" />
      <path d="M 50.588105,8.179603 A 3.0,2.0584724726314594 119.87755133985365 0,1 51.421574,9.89717" />
      <line x1="24.262592" y1="17.554339" x2="49.093661" y2="8.128109" />
      <path d="M 21.934679,21.090818 A 3.0,2.0584724726314594 119.87755133985365 0,1 24.262592,17.554339" />
      <path d="M 66.165021,-9.317208 A 20.0,9.340022822044498 180.0 0,0 73.549647,-16.564794" />
      <path d="M -64.975658,31.567083 A 1.35,0.6304515404880037 -9.982646382203295e-16 0,1 -64.673219,31.964752" />
      <path d="M -64.673219,31.964752 A 1.3500000000000012,0.6304515404880042 -9.982646382203295e-16 0,1 -67.373219,31.964752" />
      <path d="M -67.373219,31.964752 A 1.35,0.6304515404880037 -9.982646382203295e-16 0,1 -64.975658,31.567083" />
      <path d="M 7.965608,3.877531 A 1.35,0.6304515404880037 -9.982646382203295e-16 0,1 8.268047,4.2752" />
      <path d="M 8.268047,4.2752 A 1.35,0.6304515404880037 -9.982646382203295e-16 0,1 5.568047,4.2752" />
      <path d="M 5.568047,4.2752 A 1.35,0.6304515404880037 -9.982646382203295e-16 0,1 7.965608,3.877531" />
      <path d="M -5.683402,65.630737 A 1.35,0.6304515404880037 -9.982646382203295e-16 0,1 -5.380962,66.028406" />
      <path d="M -5.380962,66.028406 A 1.35,0.6304515404880037 -9.982646382203295e-16 0,1 -8.080962,66.028406" />
      <path d="M -8.080962,66.028406 A 1.35,0.6304515404880037 -9.982646382203295e-16 0,1 -5.683402,65.630737" />
      <path d="M 69.888998,-7.829589 A 5.0,2.3350057055111244 3.09330905241654e-15 0,1 61.210304,-9.411008" />
      <path d="M 61.210304,-9.411008 A 5.0,2.3350057055111244 3.09330905241654e-15 0,1 70.503134,-10.608172" />
      <line x1="70.503134" y1="47.752771" x2="70.503134" y2="-10.608172" />
      <line x1="69.888998" y1="50.531354" x2="69.888998" y2="-7.829589" />
      <path d="M 70.503134,-10.608172 A 17.0,7.939019398737823 180.0 0,0 66.741153,-15.028979" />
      <path d="M 64.272715,-3.860846 A 17.0,7.939019398737823 180.0 0,0 69.888998,-7.829589" />
      <line x1="18.802733" y1="-42.569806" x2="66.741153" y2="-15.028979" />
      <line x1="5.298925" y1="18.526451" x2="64.272715" y2="-3.860846" />
      <path d="M 28.345262,20.83094 A 1.7,1.1664677344911603 -60.12244866014633 0,0 27.872963,19.857652" />
      <path d="M 27.872963,19.857652 A 1.7,1.1664677344911603 -60.12244866014633 0,0 26.459043,20.18972" />
      <path d="M 28.298283,21.246371 A 1.7,1.1664677344911603 -60.12244866014633 0,0 28.345262,20.83094" />
      <path d="M 44.097471,25.020127 A 12.0,8.233889890525838 -60.12244866014633 0,0 40.763597,18.14986" />
      <path d="M 40.763597,18.14986 A 12.0,8.233889890525838 -60.12244866014633 0,0 29.436479,21.90027" />
      <path d="M 43.229127,29.824205 A 12.0,8.233889890525838 -60.12244866014633 0,0 44.097471,25.020127" />
      <path d="M 43.86468,14.939546 A 1.7,1.1664677344911603 -60.12244866014633 0,0 43.392381,13.966258" />
      <path d="M 43.392381,13.966258 A 1.7000000083072206,1.166467740191222 -60.12244866014633 0,0 41.698678,16.914371" />
      <path d="M 41.698678,16.914371 A 1.7,1.1664677344911603 -60.12244866014633 0,0 43.86468,14.939546" />
      <path d="M 18.802733,-42.569806 A 17.0,7.939019398737823 180.0 0,0 10.304374,-45.192616" />
      <line x1="10.304374" y1="13.168327" x2="10.304374" y2="-45.192616" />
      <path d="M -4.167448,20.283301 A 17.0,7.939019398737823 180.0 0,0 5.298925,18.526451" />
      <line x1="-4.167448" y1="78.644244" x2="-4.167448" y2="20.283301" />
      <path d="M 4.354533,-45.479419 A 5.0,2.3350057055111244 180.0 0,0 1.918047,-43.474662" />
      <path d="M 1.918047,-43.474662 A 5.0,2.3350057055111244 180.0 1,0 11.918047,-43.474662" />
      <path d="M 11.918047,-43.474662 A 5.0,2.3350057055111244 180.0 0,0 10.304374,-45.192616" />
      <line x1="4.354533" y1="12.881524" x2="4.354533" y2="-45.479419" />
      <path d="M -4.167448,20.283301 A 5.0,2.3350057055111244 180.0 0,0 -1.730962,18.278544" />
      <path d="M -1.730962,18.278544 A 5.0,2.3350057055111244 180.0 1,0 -11.730962,18.278544" />
      <path d="M -11.730962,18.278544 A 5.0,2.3350057055111244 180.0 0,0 -10.117289,19.996498" />
      <line x1="-10.117289" y1="78.357441" x2="-10.117289" y2="19.996498" />
      <path d="M 4.354533,-45.479419 A 17.0,7.939019398737823 180.0 0,0 -5.111841,-43.722569" />
      <path d="M -18.615648,17.373688 A 17.0,7.939019398737823 180.0 0,0 -10.117289,19.996498" />
      <line x1="-64.08563" y1="-21.335272" x2="-5.111841" y2="-43.722569" />
      <line x1="-66.554068" y1="-10.167139" x2="-18.615648" y2="17.373688" />
      <path d="M -64.08563,-21.335272 A 17.0,7.939019398737823 180.0 0,0 -69.701913,-17.366529" />
      <line x1="-69.701913" y1="40.994414" x2="-69.701913" y2="-17.366529" />
      <path d="M -70.31605,-14.587946 A 17.0,7.939019398737823 180.0 0,0 -66.554068,-10.167139" />
      <line x1="-70.31605" y1="43.772997" x2="-70.31605" y2="-14.587946" />
      <path d="M -70.31605,-14.587946 A 5.0,2.335005705511125 -180.0 0,0 -61.023219,-15.785111" />
      <path d="M -61.023219,-15.785111 A 5.0,2.335005705511125 -180.0 0,0 -69.701913,-17.366529" />
      <path d="M 67.257864,37.941186 A 1.35,0.6304515404880037 -9.982646382203295e-16 0,1 67.560304,38.338855" />
      <path d="M 67.560304,38.338855 A 1.3500000000000012,0.6304515404880042 -9.982646382203295e-16 0,1 64.860304,38.338855" />
      <path d="M 64.860304,38.338855 A 1.35,0.6304515404880037 -9.982646382203295e-16 0,1 67.257864,37.941186" />
      <path d="M -38.760446,-8.80524 A 1.35,0.6304515404880036 -1.7829462567300183e-16 0,1 -38.777463,-8.905025" />
      <path d="M -38.777463,-8.905025 A 1.35,0.6304515404880036 -1.7829462567300183e-16 1,1 -36.077463,-8.905025" />
      <path d="M -36.077463,-8.905025 A 1.35,0.6304515404880036 -1.7829462567300183e-16 0,1 -38.760446,-8.80524" />
      <path d="M 14.126783,-28.881991 A 1.35,0.6304515404880037 -3.811857271891175e-15 0,1 14.995337,-28.292993" />
      <path d="M 14.995337,-28.292993 A 1.35,0.6304515404880037 -3.811857271891175e-15 0,1 12.295337,-28.292993" />
      <path d="M 12.295337,-28.292993 A 1.35,0.6304515404880037 -3.811857271891175e-15 0,1 14.126783,-28.881991" />
      <path d="M 24.91429,2.545823 A 1.35,0.6304515404880037 -5.05249871044796e-16 0,1 22.712753,2.056611" />
      <path d="M 22.712753,2.056611 A 1.35,0.6304515404880037 -5.05249871044796e-16 0,1 25.412753,2.056611" />
      <path d="M 25.412753,2.056611 A 1.35,0.6304515404880037 -5.05249871044796e-16 0,1 24.91429,2.545823" />
      <line x1="22.880832" y1="21.634387" x2="22.880832" y2="49.930602" />
      <path d="M 25.208745,51.699663 A 3.0,2.0584724726314594 119.87755133985365 0,1 23.714301,51.648169" />
      <path d="M 23.714301,51.648169 A 3.0,2.0584724726314594 119.87755133985365 0,1 22.880832,49.930602" />
      <line x1="25.208745" y1="51.699663" x2="50.039814" y2="42.273433" />
      <path d="M 52.367727,38.736954 A 3.0,2.0584724726314594 119.87755133985365 0,1 50.039814,42.273433" />
      <line x1="52.367727" y1="10.440739" x2="52.367727" y2="38.736954" />
      <path d="M 50.039814,8.671678 A 3.0,2.0584724726314594 119.87755133985365 0,1 51.534258,8.723172" />
      <path d="M 51.534258,8.723172 A 3.0,2.0584724726314594 119.87755133985365 0,1 52.367727,10.440739" />
      <line x1="25.208745" y1="18.097908" x2="50.039814" y2="8.671678" />
      <path d="M 22.880832,21.634387 A 3.0,2.0584724726314594 119.87755133985365 0,1 25.208745,18.097908" />
      <path d="M -45.326622,-9.19796 A 8.0,3.736009128817799 -1.7829462567300183e-16 0,1 -45.427463,-9.789282" />
      <path d="M -45.427463,-9.789282 A 8.000000000000002,3.7360091288177997 -1.7829462567300183e-16 1,1 -29.427463,-9.789282" />
      <path d="M -29.427463,-9.789282 A 8.0,3.736009128817799 -1.7829462567300183e-16 0,1 -45.326622,-9.19796" />
      <path d="M 16.498347,-32.667606 A 8.0,3.7360091288177992 -3.811857271891175e-15 0,1 21.645337,-29.17725" />
      <path d="M 21.645337,-29.17725 A 8.0,3.7360091288177992 -3.811857271891175e-15 0,1 5.645337,-29.17725" />
      <path d="M 5.645337,-29.17725 A 8.0,3.7360091288177992 -3.811857271891175e-15 0,1 16.498347,-32.667606" />
      <path d="M 12.43148,-17.281717 A 15.899999999999999,7.4253181435253754 -9.982646382203295e-16 0,1 15.993542,-12.598059" />
      <path d="M 15.993542,-12.598059 A 15.899999999999999,7.4253181435253754 -9.982646382203295e-16 0,1 -15.806458,-12.598059" />
      <path d="M -15.806458,-12.598059 A 15.899999999999999,7.4253181435253754 -9.982646382203295e-16 0,1 12.43148,-17.281717" />
      <path d="M 29.108902,4.071389 A 8.0,3.7360091288177992 -5.05249871044796e-16 0,1 16.062753,1.172354" />
      <path d="M 16.062753,1.172354 A 8.0,3.7360091288177992 -5.05249871044796e-16 0,1 32.062753,1.172354" />
      <path d="M 32.062753,1.172354 A 8.0,3.7360091288177992 -5.05249871044796e-16 0,1 29.108902,4.071389" />
      <path d="M 29.922183,42.074793 A 1.7,1.1664677344911603 -60.12244866014633 0,0 29.449884,41.101505" />
      <path d="M 29.449884,41.101505 A 1.7,1.1664677344911603 -60.12244866014633 0,0 28.344992,41.199321" />
      <path d="M 27.284152,43.045853 A 1.7,1.1664677344911603 -60.12244866014633 0,0 27.756181,44.049617" />
      <path d="M 27.756181,44.049617 A 1.7,1.1664677344911603 -60.12244866014633 0,0 29.922183,42.074793" />
      <path d="M 45.441602,36.183399 A 1.7,1.1664677344911603 -60.12244866014633 0,0 44.969303,35.210111" />
      <path d="M 44.969303,35.210111 A 1.7,1.1664677344911603 -60.12244866014633 0,0 43.864411,35.307927" />
      <path d="M 42.80357,37.154459 A 1.7,1.1664677344911603 -60.12244866014633 0,0 43.275599,38.158224" />
      <path d="M 43.275599,38.158224 A 1.7,1.1664677344911603 -60.12244866014633 0,0 45.441602,36.183399" />
      <path d="M 29.922183,21.736888 A 1.7,1.1664677344911603 -60.12244866014633 0,0 29.449884,20.7636" />
      <path d="M 29.449884,20.7636 A 1.7,1.1664677344911603 -60.12244866014633 0,0 28.035965,21.095668" />
      <path d="M 27.284152,22.707949 A 1.7,1.1664677344911603 -60.12244866014633 0,0 27.756181,23.711713" />
      <path d="M 27.756181,23.711713 A 1.7,1.1664677344911603 -60.12244866014633 0,0 29.922183,21.736888" />
      <path d="M 45.674393,25.926076 A 12.0,8.233889890525838 -60.12244866014633 0,0 42.340519,19.055808" />
      <path d="M 42.340519,19.055808 A 12.0,8.233889890525838 -60.12244866014633 0,0 31.013401,22.806218" />
      <path d="M 29.633069,39.349396 A 12.0,8.233889890525838 -60.12244866014633 0,0 30.384965,39.866016" />
      <path d="M 30.384965,39.866016 A 12.0,8.233889890525838 -60.12244866014633 0,0 45.674393,25.926076" />
      <path d="M 45.441602,15.845494 A 1.7,1.1664677344911603 -60.12244866014633 0,0 44.969303,14.872206" />
      <path d="M 44.969303,14.872206 A 1.700000257381246,1.1664679110952303 -60.12244866014633 0,0 43.275599,17.820319" />
      <path d="M 43.275599,17.820319 A 1.7,1.1664677344911603 -60.12244866014633 0,0 45.441602,15.845494" />
      <line x1="27.769449" y1="20.486004" x2="47.47911" y2="13.003933" />
      <line x1="47.47911" y1="13.003933" x2="47.47911" y2="39.885337" />
      <line x1="27.769449" y1="47.367408" x2="47.47911" y2="39.885337" />
      <line x1="27.769449" y1="20.486004" x2="27.769449" y2="21.389026" />
      <line x1="27.769449" y1="22.291377" x2="27.769449" y2="28.636189" />
      <line x1="27.769449" y1="36.80991" x2="27.769449" y2="41.72693" />
      <line x1="27.769449" y1="42.629282" x2="27.769449" y2="47.367408" />
      <path d="M -45.326622,-5.660934 A 8.0,3.736009128817799 -1.7829462567300183e-16 0,1 -45.427463,-6.252255" />
      <path d="M -45.427463,-6.252255 A 8.000000000000002,3.7360091288177997 -1.7829462567300183e-16 1,1 -29.427463,-6.252255" />
      <path d="M -29.427463,-6.252255 A 8.0,3.736009128817799 -1.7829462567300183e-16 0,1 -45.326622,-5.660934" />
      <path d="M 16.498347,-29.130579 A 8.0,3.7360091288177992 -3.811857271891175e-15 0,1 21.645337,-25.640223" />
      <path d="M 21.645337,-25.640223 A 8.0,3.7360091288177992 -3.811857271891175e-15 0,1 5.645337,-25.640223" />
      <path d="M 5.645337,-25.640223 A 8.0,3.7360091288177992 -3.811857271891175e-15 0,1 16.498347,-29.130579" />
      <path d="M -15.762175,18.681394 A 15.899999999999999,7.4253181435253754 -9.982646382203295e-16 0,1 11.918047,14.271088" />
      <path d="M 29.108902,7.608416 A 8.0,3.7360091288177992 -5.05249871044796e-16 0,1 16.062753,4.709381" />
      <path d="M 16.062753,4.709381 A 8.0,3.7360091288177992 -5.05249871044796e-16 0,1 32.062753,4.709381" />
      <path d="M 32.062753,4.709381 A 8.0,3.7360091288177992 -5.05249871044796e-16 0,1 29.108902,7.608416" />
      <line x1="26.507911" y1="19.761245" x2="26.507911" y2="46.642649" />
      <line x1="26.507911" y1="19.761245" x2="46.217573" y2="12.279175" />
      <line x1="26.507911" y1="46.642649" x2="46.217573" y2="39.160579" />
      <line x1="46.217573" y1="12.279175" x2="46.217573" y2="39.160579" />
      <line x1="27.769449" y1="20.486004" x2="26.507911" y2="19.761245" />
      <line x1="47.47911" y1="13.003933" x2="46.217573" y2="12.279175" />
      <line x1="47.47911" y1="39.885337" x2="46.217573" y2="39.160579" />
      <line x1="27.769449" y1="47.367408" x2="26.507911" y2="46.642649" />
      <path d="M 10.103567,15.435233 A 12.899999999999999,6.0243147202187 -9.982646382203295e-16 0,1 11.148791,16.130714" />
      <path d="M -12.122605,17.299761 A 12.899999999999999,6.0243147202187 -9.982646382203295e-16 0,1 0.581859,13.215186" />
      <path d="M 1.918047,13.271427 A 12.899999999999999,6.0243147202187 -9.982646382203295e-16 0,1 10.103567,15.435233" />
      <path d="M 10.103567,-16.398008 A 12.899999999999999,6.0243147202187 -9.982646382203295e-16 0,1 12.993542,-12.598059" />
      <path d="M 12.993542,-12.598059 A 12.899999999999999,6.0243147202187 -9.982646382203295e-16 0,1 -12.806458,-12.598059" />
      <path d="M -12.806458,-12.598059 A 12.899999999999999,6.0243147202187 -9.982646382203295e-16 0,1 10.103567,-16.398008" />
      <line x1="-64.673219" y1="31.964752" x2="-64.673219" y2="42.575832" />
      <line x1="-67.373219" y1="31.964752" x2="-67.373219" y2="42.575832" />
      <line x1="8.268047" y1="4.2752" x2="8.268047" y2="14.886281" />
      <line x1="5.568047" y1="4.2752" x2="5.568047" y2="14.886281" />
      <line x1="-5.380962" y1="66.028406" x2="-5.380962" y2="76.639487" />
      <line x1="-8.080962" y1="66.028406" x2="-8.080962" y2="76.639487" />
      <line x1="61.210304" y1="-9.411008" x2="61.210304" y2="40.154468" />
      <line x1="11.918047" y1="-43.474662" x2="11.918047" y2="13.426354" />
      <line x1="1.918047" y1="-43.474662" x2="1.918047" y2="13.049411" />
      <line x1="-1.730962" y1="18.278544" x2="-1.730962" y2="26.611453" />
      <line x1="-11.730962" y1="18.278544" x2="-11.730962" y2="24.199277" />
      <line x1="-61.023219" y1="-15.785111" x2="-61.023219" y2="35.863135" />
      <line x1="67.560304" y1="38.338855" x2="67.560304" y2="48.949935" />
      <line x1="64.860304" y1="38.338855" x2="64.860304" y2="48.949935" />
      <line x1="-36.077463" y1="-16.863336" x2="-36.077463" y2="-8.905025" />
      <line x1="-38.777463" y1="-16.863336" x2="-38.777463" y2="-8.905025" />
      <line x1="14.995337" y1="-36.251304" x2="14.995337" y2="-28.292993" />
      <line x1="12.295337" y1="-36.251304" x2="12.295337" y2="-28.292993" />
      <line x1="25.412753" y1="-5.901699" x2="25.412753" y2="2.056611" />
      <line x1="22.712753" y1="-5.901699" x2="22.712753" y2="2.056611" />
      <line x1="23.714301" y1="51.648169" x2="22.768148" y2="51.1046" />
      <line x1="51.534258" y1="8.723172" x2="50.588105" y2="8.179603" />
      <line x1="27.872963" y1="40.195556" x2="29.449884" y2="41.101505" />
      <line x1="26.179259" y1="43.143669" x2="27.756181" y2="44.049617" />
      <line x1="43.392381" y1="34.304162" x2="44.969303" y2="35.210111" />
      <line x1="41.698678" y1="37.252275" x2="43.275599" y2="38.158224" />
      <line x1="27.872963" y1="19.857652" x2="29.449884" y2="20.7636" />
      <line x1="26.179259" y1="22.805765" x2="27.756181" y2="23.711713" />
      <line x1="40.763597" y1="18.14986" x2="42.340519" y2="19.055808" />
      <line x1="28.808044" y1="38.960068" x2="30.384965" y2="39.866016" />
      <line x1="43.392381" y1="13.966258" x2="44.969303" y2="14.872206" />
      <line x1="41.698678" y1="16.914371" x2="43.275599" y2="17.820319" />
      <line x1="-29.427463" y1="-9.789282" x2="-29.427463" y2="-6.252255" />
      <line x1="-45.427463" y1="-9.789282" x2="-45.427463" y2="-6.252255" />
      <line x1="21.645337" y1="-29.17725" x2="21.645337" y2="-25.640223" />
      <line x1="5.645337" y1="-29.17725" x2="5.645337" y2="-25.640223" />
      <line x1="15.993542" y1="-12.598059" x2="15.993542" y2="14.512363" />
      <line x1="-15.806458" y1="-12.598059" x2="-15.806458" y2="18.698204" />
      <line x1="32.062753" y1="1.172354" x2="32.062753" y2="4.709381" />
      <line x1="16.062753" y1="1.172354" x2="16.062753" y2="4.709381" />
      <line x1="12.993542" y1="-12.598059" x2="12.993542" y2="19.235183" />
      <line x1="-12.806458" y1="-12.598059" x2="-12.806458" y2="19.235183" />
      <line x1="-68.881981" y1="-15.82693" x2="-68.881981" y2="49.077513" />
      <line x1="-20.943561" y1="11.713897" x2="-20.943561" y2="76.61834" />
      <line x1="-68.881981" y1="-15.82693" x2="-68.416398" y2="-16.534226" />
      <line x1="-20.943561" y1="11.713897" x2="-20.477978" y2="11.006601" />
      <line x1="7.191232" y1="13.070089" x2="7.191232" y2="77.974532" />
      <line x1="7.191232" y1="13.070089" x2="6.81277" y2="12.322108" />
      <line x1="66.165021" y1="-9.317208" x2="66.165021" y2="55.587235" />
      <line x1="66.741153" y1="-15.028979" x2="66.741153" y2="43.331964" />
      <line x1="64.272715" y1="-3.860846" x2="64.272715" y2="51.102489" />
      <line x1="18.802733" y1="-42.569806" x2="18.802733" y2="15.791137" />
      <line x1="5.298925" y1="18.526451" x2="5.298925" y2="26.251305" />
      <line x1="-5.111841" y1="-43.722569" x2="-5.111841" y2="14.638374" />
      <line x1="-18.615648" y1="17.373688" x2="-18.615648" y2="19.764613" />
      <line x1="-64.08563" y1="-21.335272" x2="-64.08563" y2="37.025671" />
      <line x1="-66.554068" y1="-10.167139" x2="-66.554068" y2="44.897641" />
      <line x1="66.165021" y1="-9.317208" x2="65.78656" y2="-10.065189" />
      <line x1="21.934679" y1="21.090818" x2="22.880832" y2="21.634387" />
      <line x1="21.934679" y1="49.387033" x2="22.880832" y2="49.930602" />
      <line x1="24.262592" y1="51.156094" x2="25.208745" y2="51.699663" />
      <line x1="49.093661" y1="41.729864" x2="50.039814" y2="42.273433" />
      <line x1="51.421574" y1="38.193385" x2="52.367727" y2="38.736954" />
      <line x1="51.421574" y1="9.89717" x2="52.367727" y2="10.440739" />
      <line x1="49.093661" y1="8.128109" x2="50.039814" y2="8.671678" />
      <line x1="24.262592" y1="17.554339" x2="25.208745" y2="18.097908" />
    </g>
    <g fill="none" stroke="rgb(12,12,12)" stroke-width="0.23076923076923073" id="v">
      <line x1="-68.881981" y1="49.077513" x2="-20.943561" y2="76.61834" />
      <path d="M -65.977936,-28.96591 A 20.0,9.340022822044498 -180.0 0,0 -70.345852,-26.651056" />
      <path d="M -70.345852,-26.651056 A 20.0,9.340022822044498 -180.0 0,0 -73.362563,-21.718324" />
      <path d="M -68.881981,49.077513 A 20.0,9.340022822044498 -9.982646382203295e-16 0,1 -73.362563,43.186119" />
      <path d="M -73.362563,43.186119 A 20.0,9.340022822044498 -9.982646382203295e-16 0,1 -65.977936,35.938533" />
      <path d="M 7.191232,77.974532 A 20.0,9.340022822044498 -9.982646382203295e-16 0,1 -20.943561,76.61834" />
      <line x1="-65.977936" y1="35.938533" x2="-7.004147" y2="13.551236" />
      <line x1="7.191232" y1="77.974532" x2="66.165021" y2="55.587235" />
      <path d="M -7.004147,13.551236 A 20.0,9.340022822044498 -9.982646382203295e-16 0,1 21.130645,14.907428" />
      <path d="M 69.069066,42.448255 A 20.0,9.340022822044498 -9.982646382203295e-16 0,1 73.549647,48.339649" />
      <path d="M 73.549647,48.339649 A 20.0,9.340022822044498 -9.982646382203295e-16 0,1 66.165021,55.587235" />
      <line x1="21.130645" y1="14.907428" x2="69.069066" y2="42.448255" />
      <path d="M -64.975658,42.178163 A 1.35,0.6304515404880037 -9.982646382203295e-16 0,1 -64.673219,42.575832" />
      <path d="M -64.673219,42.575832 A 1.3500000000000012,0.6304515404880042 -9.982646382203295e-16 0,1 -67.373219,42.575832" />
      <path d="M -67.373219,42.575832 A 1.35,0.6304515404880037 -9.982646382203295e-16 0,1 -64.975658,42.178163" />
      <path d="M 7.965608,14.488612 A 1.35,0.6304515404880037 -9.982646382203295e-16 0,1 8.268047,14.886281" />
      <path d="M 8.268047,14.886281 A 1.35,0.6304515404880037 -9.982646382203295e-16 0,1 5.568047,14.886281" />
      <path d="M 5.568047,14.886281 A 1.35,0.6304515404880037 -9.982646382203295e-16 0,1 7.965608,14.488612" />
      <path d="M -5.683402,76.241818 A 1.35,0.6304515404880037 -9.982646382203295e-16 0,1 -5.380962,76.639487" />
      <path d="M -5.380962,76.639487 A 1.35,0.6304515404880037 -9.982646382203295e-16 0,1 -8.080962,76.639487" />
      <path d="M -8.080962,76.639487 A 1.35,0.6304515404880037 -9.982646382203295e-16 0,1 -5.683402,76.241818" />
      <path d="M 70.503134,47.752771 A 5.0,2.3350057055111244 180.0 0,0 61.210304,48.949935" />
      <path d="M 61.210304,48.949935 A 5.0,2.3350057055111244 180.0 0,0 69.888998,50.531354" />
      <path d="M 70.503134,47.752771 A 17.0,7.939019398737823 180.0 0,0 66.741153,43.331964" />
      <path d="M 64.272715,54.500097 A 17.0,7.939019398737823 180.0 0,0 69.888998,50.531354" />
      <line x1="18.802733" y1="15.791137" x2="66.741153" y2="43.331964" />
      <line x1="5.298925" y1="76.887394" x2="64.272715" y2="54.500097" />
      <path d="M 18.802733,15.791137 A 17.0,7.939019398737823 180.0 0,0 10.304374,13.168327" />
      <path d="M -4.167448,78.644244 A 17.0,7.939019398737823 180.0 0,0 5.298925,76.887394" />
      <path d="M 10.304374,13.168327 A 5.0,2.3350057055111244 -3.4417030827132967e-15 0,1 11.918047,14.886281" />
      <path d="M 11.918047,14.886281 A 5.0,2.3350057055111244 -3.4417030827132967e-15 1,1 1.918047,14.886281" />
      <path d="M 1.918047,14.886281 A 5.0,2.3350057055111244 -3.4417030827132967e-15 0,1 4.354533,12.881524" />
      <path d="M -10.117289,78.357441 A 5.0,2.335005705511125 6.153288409461469e-16 0,1 -11.730962,76.639487" />
      <path d="M -11.730962,76.639487 A 5.0,2.335005705511125 6.153288409461469e-16 0,1 -1.730962,76.639487" />
      <path d="M -1.730962,76.639487 A 5.0,2.335005705511125 6.153288409461469e-16 0,1 -4.167448,78.644244" />
      <path d="M 4.354533,12.881524 A 17.0,7.939019398737823 180.0 0,0 -5.111841,14.638374" />
      <path d="M -18.615648,75.734631 A 17.0,7.939019398737823 180.0 0,0 -10.117289,78.357441" />
      <line x1="-64.08563" y1="37.025671" x2="-5.111841" y2="14.638374" />
      <line x1="-66.554068" y1="48.193804" x2="-18.615648" y2="75.734631" />
      <path d="M -64.08563,37.025671 A 17.0,7.939019398737823 180.0 0,0 -69.701913,40.994414" />
      <path d="M -70.31605,43.772997 A 17.0,7.939019398737823 180.0 0,0 -66.554068,48.193804" />
      <path d="M -69.701913,40.994414 A 5.0,2.335005705511124 -4.47906512684366e-16 0,1 -61.023219,42.575832" />
      <path d="M -61.023219,42.575832 A 5.0,2.335005705511124 -4.47906512684366e-16 0,1 -70.31605,43.772997" />
      <path d="M 67.257864,48.552266 A 1.35,0.6304515404880037 -9.982646382203295e-16 0,1 67.560304,48.949935" />
      <path d="M 67.560304,48.949935 A 1.3500000000000012,0.6304515404880042 -9.982646382203295e-16 0,1 64.860304,48.949935" />
      <path d="M 64.860304,48.949935 A 1.35,0.6304515404880037 -9.982646382203295e-16 0,1 67.257864,48.552266" />
      <path d="M -65.599475,-29.279036 A 19.4,9.059822137383161 -180.0 0,0 -69.836354,-27.033628" />
      <line x1="-7.004147" y1="-51.353207" x2="-65.977936" y2="-28.96591" />
      <line x1="-6.625686" y1="-51.666333" x2="-65.599475" y2="-29.279036" />
      <path d="M 20.665063,-50.350827 A 19.4,9.059822137383163 180.0 0,0 -6.625686,-51.666333" />
      <path d="M 70.023438,-21.880098 A 19.4,9.059822137383161 180.0 0,0 68.603483,-22.81" />
      <line x1="68.603483" y1="-22.81" x2="20.665063" y2="-50.350827" />
      <path d="M 21.130645,-49.997015 A 20.0,9.3400228220445 180.0 0,0 -7.004147,-51.353207" />
      <path d="M 73.549647,-16.564794 A 20.0,9.340022822044498 180.0 0,0 70.532937,-21.497526" />
      <path d="M 70.532937,-21.497526 A 20.0,9.340022822044498 180.0 0,0 69.069066,-22.456188" />
      <line x1="69.069066" y1="-22.456188" x2="21.130645" y2="-49.997015" />
      <path d="M 28.345262,41.168844 A 1.7,1.1664677344911603 -60.12244866014633 0,0 27.872963,40.195556" />
      <path d="M 27.872963,40.195556 A 1.700000257381246,1.1664679110952303 -60.12244866014633 0,0 26.179259,43.143669" />
      <path d="M 26.179259,43.143669 A 1.7,1.1664677344911603 -60.12244866014633 0,0 28.345262,41.168844" />
      <path d="M 43.86468,35.27745 A 1.7,1.1664677344911603 -60.12244866014633 0,0 43.392381,34.304162" />
      <path d="M 43.392381,34.304162 A 1.7000000083072206,1.166467740191222 -60.12244866014633 0,0 41.698678,37.252275" />
      <path d="M 41.698678,37.252275 A 1.7,1.1664677344911603 -60.12244866014633 0,0 43.86468,35.27745" />
      <path d="M 26.459043,20.18972 A 1.7,1.1664677344911603 -60.12244866014633 0,0 26.179259,22.805765" />
      <path d="M 26.179259,22.805765 A 1.7,1.1664677344911603 -60.12244866014633 0,0 28.298283,21.246371" />
      <path d="M 29.436479,21.90027 A 12.0,8.233889890525838 -60.12244866014633 0,0 28.808044,38.960068" />
      <path d="M 28.808044,38.960068 A 12.0,8.233889890525838 -60.12244866014633 0,0 43.229127,29.824205" />
      <path d="M 28.344992,41.199321 A 1.7,1.1664677344911603 -60.12244866014633 0,0 27.284152,43.045853" />
      <path d="M 43.864411,35.307927 A 1.7,1.1664677344911603 -60.12244866014633 0,0 42.80357,37.154459" />
      <path d="M 28.035965,21.095668 A 1.7,1.1664677344911603 -60.12244866014633 0,0 27.284152,22.707949" />
      <path d="M 31.013401,22.806218 A 12.0,8.233889890525838 -60.12244866014633 0,0 29.633069,39.349396" />
      <line x1="27.769449" y1="21.389026" x2="27.769449" y2="22.291377" />
      <line x1="27.769449" y1="28.636189" x2="27.769449" y2="36.80991" />
      <line x1="27.769449" y1="41.72693" x2="27.769449" y2="42.629282" />
      <path d="M 12.43148,14.551524 A 15.899999999999999,7.4253181435253754 -9.982646382203295e-16 0,1 15.993542,19.235183" />
      <path d="M 15.993542,19.235183 A 15.899999999999999,7.4253181435253754 -9.982646382203295e-16 0,1 -15.806458,19.235183" />
      <path d="M -15.806458,19.235183 A 15.899999999999999,7.4253181435253754 -9.982646382203295e-16 0,1 -15.762175,18.681394" />
      <path d="M 11.918047,14.271088 A 15.899999999999999,7.4253181435253754 -9.982646382203295e-16 0,1 12.43148,14.551524" />
      <path d="M 11.148791,16.130714 A 12.899999999999999,6.0243147202187 -9.982646382203295e-16 0,1 12.993542,19.235183" />
      <path d="M 12.993542,19.235183 A 12.899999999999999,6.0243147202187 -9.982646382203295e-16 0,1 -12.806458,19.235183" />
      <path d="M -12.806458,19.235183 A 12.899999999999999,6.0243147202187 -9.982646382203295e-16 0,1 -12.122605,17.299761" />
      <path d="M 0.581859,13.215186 A 12.899999999999999,6.0243147202187 -9.982646382203295e-16 0,1 1.918047,13.271427" />
      <line x1="-65.977936" y1="-28.96591" x2="-65.977936" y2="35.938533" />
      <line x1="-65.977936" y1="-28.96591" x2="-65.599475" y2="-29.279036" />
      <line x1="-7.004147" y1="-51.353207" x2="-7.004147" y2="13.551236" />
      <line x1="21.130645" y1="-49.997015" x2="21.130645" y2="14.907428" />
      <line x1="69.069066" y1="-22.456188" x2="69.069066" y2="42.448255" />
      <line x1="64.272715" y1="51.102489" x2="64.272715" y2="54.500097" />
      <line x1="5.298925" y1="26.251305" x2="5.298925" y2="76.887394" />
      <line x1="-18.615648" y1="19.764613" x2="-18.615648" y2="75.734631" />
      <line x1="-66.554068" y1="44.897641" x2="-66.554068" y2="48.193804" />
      <line x1="-7.004147" y1="-51.353207" x2="-6.625686" y2="-51.666333" />
      <line x1="21.130645" y1="-49.997015" x2="20.665063" y2="-50.350827" />
      <line x1="69.069066" y1="-22.456188" x2="68.603483" y2="-22.81" />
      <line x1="-73.362563" y1="43.186119" x2="-73.362563" y2="-21.718324" />
      <line x1="-69.836354" y1="-27.033628" x2="-70.345852" y2="-26.651056" />
      <line x1="73.549647" y1="48.339649" x2="73.549647" y2="-16.564794" />
      <line x1="61.210304" y1="40.154468" x2="61.210304" y2="48.949935" />
      <line x1="11.918047" y1="13.426354" x2="11.918047" y2="14.886281" />
      <line x1="1.918047" y1="13.049411" x2="1.918047" y2="14.886281" />
      <line x1="-1.730962" y1="26.611453" x2="-1.730962" y2="76.639487" />
      <line x1="-11.730962" y1="24.199277" x2="-11.730962" y2="76.639487" />
      <line x1="-61.023219" y1="35.863135" x2="-61.023219" y2="42.575832" />
      <line x1="70.023438" y1="-21.880098" x2="70.532937" y2="-21.497526" />
      <line x1="15.993542" y1="14.512363" x2="15.993542" y2="19.235183" />
      <line x1="-15.806458" y1="18.698204" x2="-15.806458" y2="19.235183" />
    </g>
  </g>
</svg>