<?xml version='1.0' encoding='utf-8'?>
<svg width="217.988725mm" height="184.471273mm" viewBox="-77.448046 -75.790803 155.706232 131.765195" version="1.1" xmlns="http://www.w3.org/2000/svg">
  <g transform="scale(1,-1)" stroke-linecap="round">
    <g fill="none" stroke="rgb(198,198,198)" stroke-width="0.08571428571428572" id="hidden">
      <line x1="-68.565071" y1="-16.456193" x2="-20.582106" y2="-47.503666" />
      <line x1="-68.565071" y1="28.9337" x2="-20.582106" y2="-2.113773" />
      <path d="M -57.200684,16.480363 A 2.0,1.0733006375511345 113.2132076857879 0,0 -56.412377,12.942278" />
      <path d="M -56.412377,12.942278 A 2.0,1.0733006375511345 113.2132076857879 0,0 -57.988992,16.618456" />
      <path d="M -57.988992,16.618456 A 2.0,1.0733006375511345 113.2132076857879 0,0 -57.200684,16.480363" />
      <path d="M -31.946492,0.139588 A 2.0,1.0733006375511345 113.2132076857879 0,0 -31.158185,-3.398497" />
      <path d="M -31.158185,-3.398497 A 2.0,1.0733006375511345 113.2132076857879 0,0 -32.7348,0.277681" />
      <path d="M -32.7348,0.277681 A 2.0,1.0733006375511345 113.2132076857879 0,0 -31.946492,0.139588" />
      <path d="M -68.751181,-16.333924 A 20.0,10.535718450670133 180.0 0,1 -68.565071,-16.456193" />
      <path d="M -68.565071,28.9337 A 20.0,10.535718450670132 -2.601542611448587e-15 0,0 -73.055189,35.585476" />
      <path d="M 7.554873,-3.632384 A 20.0,10.535718450670132 -2.601542611448587e-15 0,0 -20.582106,-2.113773" />
      <line x1="7.554873" y1="-3.632384" x2="66.492425" y2="21.644367" />
      <path d="M 73.865329,29.814754 A 20.0,10.535718450670132 -2.601542611448587e-15 0,0 66.492425,21.644367" />
      <path d="M -64.669912,36.717846 A 1.35,0.7111609954202339 -2.601542611448587e-15 0,0 -64.366829,36.268851" />
      <path d="M -64.366829,36.268851 A 1.3500000000000012,0.7111609954202346 -2.601542611448587e-15 0,0 -67.066829,36.268851" />
      <path d="M -67.066829,36.268851 A 1.35,0.7111609954202339 -2.601542611448587e-15 0,0 -64.669912,36.717846" />
      <path d="M 8.226534,67.981196 A 1.35,0.7111609954202339 -2.601542611448587e-15 0,0 8.529617,67.532201" />
      <path d="M 8.529617,67.532201 A 1.35,0.7111609954202339 -2.601542611448587e-15 0,0 5.829617,67.532201" />
      <path d="M 5.829617,67.532201 A 1.35,0.7111609954202339 -2.601542611448587e-15 0,0 8.226534,67.981196" />
      <path d="M -5.32256,-1.682975 A 1.35,0.7111609954202339 -2.601542611448587e-15 0,0 -5.019477,-2.13197" />
      <path d="M -5.019477,-2.13197 A 1.35,0.7111609954202339 -2.601542611448587e-15 0,0 -7.719477,-2.13197" />
      <path d="M -7.719477,-2.13197 A 1.35,0.7111609954202339 -2.601542611448587e-15 0,0 -5.32256,-1.682975" />
      <path d="M 70.817861,30.483511 A 5.0,2.633929612667533 180.0 0,1 61.526969,29.131379" />
      <path d="M 61.526969,29.131379 A 5.0,2.633929612667533 180.0 0,1 70.20822,27.348975" />
      <path d="M 70.817861,30.483511 A 17.0,8.95536068306961 180.0 0,1 67.048728,35.468764" />
      <path d="M 64.59836,22.869925 A 17.0,8.95536068306961 180.0 0,1 70.20822,27.348975" />
      <line x1="19.065763" y1="66.516237" x2="67.048728" y2="35.468764" />
      <line x1="5.660808" y1="-2.406826" x2="64.59836" y2="22.869925" />
      <path d="M 19.065763,66.516237 A 17.0,8.95536068306961 180.0 0,1 10.563164,69.471432" />
      <path d="M -3.80272,-4.392352 A 17.0,8.95536068306961 180.0 0,1 5.660808,-2.406826" />
      <path d="M 10.563164,69.471432 A 5.0,2.633929612667533 -5.6875746188000055e-15 0,0 12.179617,67.532201" />
      <path d="M 12.179617,67.532201 A 5.0,2.633929612667533 -5.6875746188000055e-15 1,0 2.179617,67.532201" />
      <path d="M 2.179617,67.532201 A 5.0,2.633929612667533 -5.6875746188000055e-15 0,0 4.61286,69.792583" />
      <path d="M -9.753024,-4.071202 A 5.0,2.6339296126675333 -3.7739204918316825e-15 0,0 -11.369477,-2.13197" />
      <path d="M -11.369477,-2.13197 A 5.0,2.6339296126675333 -3.7739204918316825e-15 1,0 -1.369477,-2.13197" />
      <path d="M -1.369477,-2.13197 A 5.0,2.6339296126675333 -3.7739204918316825e-15 0,0 -3.80272,-4.392352" />
      <path d="M 4.61286,69.792583 A 17.0,8.95536068306961 180.0 0,1 -4.850668,67.807056" />
      <path d="M -18.255623,-1.116006 A 17.0,8.95536068306961 180.0 0,1 -9.753024,-4.071202" />
      <line x1="-63.78822" y1="42.530306" x2="-4.850668" y2="67.807056" />
      <line x1="-66.238589" y1="29.931466" x2="-18.255623" y2="-1.116006" />
      <path d="M -63.78822,42.530306 A 17.0,8.95536068306961 180.0 0,1 -69.39808,38.051256" />
      <path d="M -70.007721,34.91672 A 17.0,8.95536068306961 180.0 0,1 -66.238589,29.931466" />
      <path d="M -69.39808,38.051256 A 5.0,2.633929612667533 -7.923596534823328e-16 0,0 -60.716829,36.268851" />
      <path d="M -60.716829,36.268851 A 5.0,2.633929612667533 -7.923596534823328e-16 0,0 -70.007721,34.91672" />
      <path d="M 67.573886,29.580374 A 1.35,0.7111609954202339 -2.601542611448587e-15 0,0 67.876969,29.131379" />
      <path d="M 67.876969,29.131379 A 1.3500000000000012,0.7111609954202346 -2.601542611448587e-15 0,0 65.176969,29.131379" />
      <path d="M 65.176969,29.131379 A 1.35,0.7111609954202339 -2.601542611448587e-15 0,0 67.573886,29.580374" />
      <path d="M -20.582106,-47.503666 A 20.0,10.535718450670132 180.0 0,1 7.554873,-49.022277" />
      <path d="M -54.874202,17.47813 A 2.0,1.0733006375511345 113.2132076857879 0,0 -54.085895,13.940045" />
      <path d="M -54.085895,13.940045 A 2.0,1.0733006375511345 113.2132076857879 0,0 -55.66251,17.616223" />
      <path d="M -55.66251,17.616223 A 2.0,1.0733006375511345 113.2132076857879 0,0 -54.874202,17.47813" />
      <path d="M -29.62001,1.137354 A 2.0,1.0733006375511345 113.2132076857879 0,0 -28.831702,-2.400731" />
      <path d="M -28.831702,-2.400731 A 2.0000004311416144,1.0733008689234194 113.2132076857879 0,0 -30.408317,1.275448" />
      <path d="M -30.408317,1.275448 A 2.0,1.0733006375511345 113.2132076857879 0,0 -29.62001,1.137354" />
      <line x1="7.554873" y1="-49.022277" x2="66.492425" y2="-23.745526" />
      <path d="M 46.329578,-5.702899 A 12.0,7.910021233455642 -122.90496664071112 0,0 30.504682,-19.768838" />
      <path d="M 30.504682,-19.768838 A 12.000000011213523,7.910021240847243 -122.90496664071112 0,0 43.542615,0.380909" />
      <path d="M 43.542615,0.380909 A 12.0,7.910021233455642 -122.90496664071112 0,0 46.329578,-5.702899" />
      <path d="M 66.492425,-23.745526 A 20.0,10.535718450670132 180.0 0,1 69.561321,-22.104646" />
      <path d="M -64.669912,26.51787 A 1.35,0.7111609954202339 -2.601542611448587e-15 0,0 -64.366829,26.068875" />
      <path d="M -64.366829,26.068875 A 1.3500000000000012,0.7111609954202346 -2.601542611448587e-15 0,0 -67.066829,26.068875" />
      <path d="M -67.066829,26.068875 A 1.35,0.7111609954202339 -2.601542611448587e-15 0,0 -64.669912,26.51787" />
      <path d="M 8.226534,57.78122 A 1.35,0.7111609954202339 -2.601542611448587e-15 0,0 8.529617,57.332225" />
      <path d="M 8.529617,57.332225 A 1.35,0.7111609954202339 -2.601542611448587e-15 0,0 5.829617,57.332225" />
      <path d="M 5.829617,57.332225 A 1.35,0.7111609954202339 -2.601542611448587e-15 0,0 8.226534,57.78122" />
      <path d="M -5.32256,-11.882951 A 1.35,0.7111609954202339 -2.601542611448587e-15 0,0 -5.019477,-12.331946" />
      <path d="M -5.019477,-12.331946 A 1.35,0.7111609954202339 -2.601542611448587e-15 0,0 -7.719477,-12.331946" />
      <path d="M -7.719477,-12.331946 A 1.35,0.7111609954202339 -2.601542611448587e-15 0,0 -5.32256,-11.882951" />
      <path d="M 70.20822,-11.750933 A 5.0,2.633929612667533 -5.6731714519871055e-16 0,0 61.526969,-9.968529" />
      <path d="M 61.526969,-9.968529 A 5.0,2.633929612667533 -5.6731714519871055e-16 0,0 70.817861,-8.616397" />
      <line x1="70.817861" y1="30.483511" x2="70.817861" y2="-8.616397" />
      <line x1="70.20822" y1="27.348975" x2="70.20822" y2="-11.750933" />
      <path d="M 70.817861,-8.616397 A 17.0,8.95536068306961 180.0 0,1 67.048728,-3.631144" />
      <path d="M 64.59836,-16.229983 A 17.0,8.95536068306961 180.0 0,1 70.20822,-11.750933" />
      <line x1="19.065763" y1="27.416329" x2="67.048728" y2="-3.631144" />
      <path d="M 30.43015,50.662908 A 2.0,1.073300637551134 -66.78679231421206 0,1 31.218457,50.524815" />
      <path d="M 31.218457,50.524815 A 2.0,1.073300637551134 -66.78679231421206 0,1 29.641842,54.200993" />
      <path d="M 29.641842,54.200993 A 2.0,1.073300637551134 -66.78679231421206 0,1 30.43015,50.662908" />
      <path d="M 55.684342,34.322133 A 2.0,1.073300637551134 -66.78679231421206 0,1 56.472649,34.18404" />
      <path d="M 56.472649,34.18404 A 2.0,1.073300637551134 -66.78679231421206 0,1 54.896034,37.860218" />
      <path d="M 54.896034,37.860218 A 2.0,1.073300637551134 -66.78679231421206 0,1 55.684342,34.322133" />
      <line x1="5.660808" y1="-41.506734" x2="64.59836" y2="-16.229983" />
      <line x1="21.946184" y1="0.32755" x2="48.312984" y2="11.63557" />
      <line x1="48.312984" y1="-17.264362" x2="48.312984" y2="11.63557" />
      <line x1="21.946184" y1="-28.572382" x2="48.312984" y2="-17.264362" />
      <line x1="21.946184" y1="-28.572382" x2="21.946184" y2="0.32755" />
      <path d="M 19.065763,27.416329 A 17.0,8.95536068306961 180.0 0,1 10.563164,30.371525" />
      <line x1="10.563164" y1="69.471432" x2="10.563164" y2="30.371525" />
      <path d="M -3.80272,-43.49226 A 17.0,8.95536068306961 180.0 0,1 5.660808,-41.506734" />
      <line x1="-3.80272" y1="-4.392352" x2="-3.80272" y2="-43.49226" />
      <path d="M 4.61286,30.692675 A 5.0,2.633929612667533 -180.0 0,1 2.179617,28.432293" />
      <path d="M 2.179617,28.432293 A 5.0,2.633929612667533 -180.0 1,1 12.179617,28.432293" />
      <path d="M 12.179617,28.432293 A 5.0,2.633929612667533 -180.0 0,1 10.563164,30.371525" />
      <line x1="4.61286" y1="69.792583" x2="4.61286" y2="30.692675" />
      <path d="M -3.80272,-43.49226 A 5.0,2.633929612667533 180.0 0,1 -1.369477,-41.231878" />
      <path d="M -1.369477,-41.231878 A 5.0,2.633929612667533 180.0 0,1 -11.369477,-41.231878" />
      <path d="M -11.369477,-41.231878 A 5.0,2.633929612667533 180.0 0,1 -9.753024,-43.171109" />
      <line x1="-9.753024" y1="-4.071202" x2="-9.753024" y2="-43.171109" />
      <path d="M 4.61286,30.692675 A 17.0,8.95536068306961 180.0 0,1 -4.850668,28.707149" />
      <path d="M -18.255623,-40.215914 A 17.0,8.95536068306961 180.0 0,1 -9.753024,-43.171109" />
      <line x1="-63.78822" y1="3.430398" x2="-4.850668" y2="28.707149" />
      <path d="M -48.278338,42.382098 A 2.0,1.3183368722426065 57.09503335928887 0,1 -48.742832,43.396066" />
      <path d="M -48.742832,43.396066 A 2.0,1.3183368722426065 57.09503335928887 0,1 -50.213981,43.198838" />
      <path d="M -51.338736,41.460561 A 2.0,1.3183368722426065 57.09503335928887 0,1 -50.915821,40.037775" />
      <path d="M -50.915821,40.037775 A 2.0,1.3183368722426065 57.09503335928887 0,1 -48.278338,42.382098" />
      <path d="M -17.258574,55.685651 A 2.0,1.3183368722426065 57.09503335928887 0,1 -17.723068,56.699619" />
      <path d="M -17.723068,56.699619 A 2.0,1.3183368722426065 57.09503335928887 0,1 -19.194217,56.502391" />
      <path d="M -20.318972,54.764114 A 2.0,1.3183368722426065 57.09503335928887 0,1 -19.896057,53.341328" />
      <path d="M -19.896057,53.341328 A 2.0,1.3183368722426065 57.09503335928887 0,1 -17.258574,55.685651" />
      <line x1="-66.238589" y1="-9.168441" x2="-18.255623" y2="-40.215914" />
      <path d="M -63.78822,3.430398 A 17.0,8.95536068306961 180.0 0,1 -69.39808,-1.048652" />
      <line x1="-69.39808" y1="38.051256" x2="-69.39808" y2="-1.048652" />
      <path d="M -70.007721,-4.183188 A 17.0,8.95536068306961 180.0 0,1 -66.238589,-9.168441" />
      <line x1="-70.007721" y1="34.91672" x2="-70.007721" y2="-4.183188" />
      <path d="M -70.007721,-4.183188 A 5.0,2.633929612667533 180.0 0,1 -60.716829,-2.831056" />
      <path d="M -60.716829,-2.831056 A 5.0,2.633929612667533 180.0 0,1 -69.39808,-1.048652" />
      <path d="M 67.573886,19.380398 A 1.35,0.7111609954202339 -2.601542611448587e-15 0,0 67.876969,18.931403" />
      <path d="M 67.876969,18.931403 A 1.3500000000000012,0.7111609954202346 -2.601542611448587e-15 0,0 65.176969,18.931403" />
      <path d="M 65.176969,18.931403 A 1.35,0.7111609954202339 -2.601542611448587e-15 0,0 67.573886,19.380398" />
      <path d="M -38.444201,-8.846171 A 1.35,0.7111609954202339 -2.908090689063779e-15 0,0 -38.46138,-8.73308" />
      <path d="M -38.46138,-8.73308 A 1.35,0.7111609954202339 -2.908090689063779e-15 0,0 -35.76138,-8.73308" />
      <path d="M -35.76138,-8.73308 A 1.35,0.7111609954202339 -2.908090689063779e-15 0,0 -38.444201,-8.846171" />
      <path d="M 14.41053,13.821819 A 1.35,0.7111609954202339 -3.1739785977928885e-15 0,0 15.280037,13.157228" />
      <path d="M 15.280037,13.157228 A 1.35,0.7111609954202339 -3.1739785977928885e-15 1,0 12.580037,13.157228" />
      <path d="M 12.580037,13.157228 A 1.35,0.7111609954202339 -3.1739785977928885e-15 0,0 14.41053,13.821819" />
      <path d="M 25.248882,-21.625032 A 1.35,0.7111609954202339 -2.1268232459325057e-15 0,0 23.046553,-21.073531" />
      <path d="M 23.046553,-21.073531 A 1.35,0.7111609954202339 -2.1268232459325057e-15 1,0 25.746553,-21.073531" />
      <path d="M 25.746553,-21.073531 A 1.35,0.7111609954202339 -2.1268232459325057e-15 0,0 25.248882,-21.625032" />
      <path d="M 45.193139,-4.967564 A 12.0,7.910021233455642 -122.90496664071112 0,0 29.368243,-19.033503" />
      <path d="M 29.368243,-19.033503 A 12.00000028283713,7.91002141989295 -122.90496664071112 0,0 42.406177,1.116244" />
      <path d="M 42.406177,1.116244 A 12.0,7.910021233455642 -122.90496664071112 0,0 45.193139,-4.967564" />
      <path d="M -45.00958,-10.253244 A 8.0,4.214287380268052 -2.908090689063779e-15 0,0 -45.11138,-9.583078" />
      <path d="M -45.11138,-9.583078 A 8.0,4.214287380268052 -2.908090689063779e-15 0,0 -29.11138,-9.583078" />
      <path d="M -29.11138,-9.583078 A 8.0,4.214287380268052 -2.908090689063779e-15 0,0 -45.00958,-10.253244" />
      <path d="M 16.777399,16.24555 A 8.0,4.214287380268052 -3.1739785977928885e-15 0,0 21.930037,12.30723" />
      <path d="M 21.930037,12.30723 A 8.0,4.214287380268052 -3.1739785977928885e-15 1,0 5.930037,12.30723" />
      <path d="M 5.930037,12.30723 A 8.0,4.214287380268052 -3.1739785977928885e-15 0,0 16.777399,16.24555" />
      <path d="M 12.735426,-1.11163 A 15.899999999999999,8.375896168282754 -2.601542611448587e-15 0,0 16.30507,-6.399792" />
      <path d="M 16.30507,-6.399792 A 15.899999999999999,8.375896168282754 -2.601542611448587e-15 0,0 -15.49493,-6.399792" />
      <path d="M -15.49493,-6.399792 A 15.899999999999999,8.375896168282754 -2.601542611448587e-15 0,0 12.735426,-1.11163" />
      <path d="M 29.447391,-25.191684 A 8.0,4.214287380268052 -2.1268232459325057e-15 0,0 16.396553,-21.923529" />
      <path d="M 16.396553,-21.923529 A 8.0,4.214287380268052 -2.1268232459325057e-15 1,0 32.396553,-21.923529" />
      <path d="M 32.396553,-21.923529 A 8.0,4.214287380268052 -2.1268232459325057e-15 0,0 29.447391,-25.191684" />
      <line x1="21.946184" y1="0.32755" x2="22.70381" y2="-0.162674" />
      <line x1="22.70381" y1="-0.162674" x2="49.07061" y2="11.145346" />
      <line x1="48.312984" y1="11.63557" x2="49.07061" y2="11.145346" />
      <line x1="49.07061" y1="-17.754586" x2="49.07061" y2="11.145346" />
      <line x1="48.312984" y1="-17.264362" x2="49.07061" y2="-17.754586" />
      <line x1="21.946184" y1="-28.572382" x2="22.70381" y2="-29.062606" />
      <line x1="22.70381" y1="-29.062606" x2="49.07061" y2="-17.754586" />
      <line x1="22.70381" y1="-29.062606" x2="22.70381" y2="-0.162674" />
      <path d="M -45.00958,-6.853252 A 8.0,4.214287380268052 -2.908090689063779e-15 0,0 -45.11138,-6.183086" />
      <path d="M -45.11138,-6.183086 A 8.0,4.214287380268052 -2.908090689063779e-15 0,0 -29.11138,-6.183086" />
      <path d="M -29.11138,-6.183086 A 8.0,4.214287380268052 -2.908090689063779e-15 0,0 -45.00958,-6.853252" />
      <path d="M 16.777399,19.645542 A 8.0,4.214287380268052 -3.1739785977928885e-15 0,0 21.930037,15.707222" />
      <path d="M 21.930037,15.707222 A 8.0,4.214287380268052 -3.1739785977928885e-15 1,0 5.930037,15.707222" />
      <path d="M 5.930037,15.707222 A 8.0,4.214287380268052 -3.1739785977928885e-15 0,0 16.777399,19.645542" />
      <path d="M 12.735426,29.488298 A 15.899999999999999,8.375896168282754 -2.601542611448587e-15 0,0 16.30507,24.200135" />
      <path d="M 16.30507,24.200135 A 15.899999999999999,8.375896168282754 -2.601542611448587e-15 0,0 -15.49493,24.200135" />
      <path d="M -15.49493,24.200135 A 15.899999999999999,8.375896168282754 -2.601542611448587e-15 0,0 12.735426,29.488298" />
      <path d="M 29.447391,-21.791692 A 8.0,4.214287380268052 -2.1268232459325057e-15 0,0 16.396553,-18.523537" />
      <path d="M 16.396553,-18.523537 A 8.0,4.214287380268052 -2.1268232459325057e-15 1,0 32.396553,-18.523537" />
      <path d="M 32.396553,-18.523537 A 8.0,4.214287380268052 -2.1268232459325057e-15 0,0 29.447391,-21.791692" />
      <path d="M 10.408944,28.490531 A 12.899999999999999,6.795538400682234 -2.601542611448587e-15 0,0 13.30507,24.200135" />
      <path d="M 13.30507,24.200135 A 12.899999999999999,6.795538400682234 -2.601542611448587e-15 0,0 -12.49493,24.200135" />
      <path d="M -12.49493,24.200135 A 12.899999999999999,6.795538400682234 -2.601542611448587e-15 0,0 10.408944,28.490531" />
      <path d="M 10.408944,-2.109397 A 12.899999999999999,6.795538400682234 -2.601542611448587e-15 0,0 13.30507,-6.399792" />
      <path d="M 13.30507,-6.399792 A 12.899999999999999,6.795538400682234 -2.601542611448587e-15 0,0 -12.49493,-6.399792" />
      <path d="M -12.49493,-6.399792 A 12.899999999999999,6.795538400682234 -2.601542611448587e-15 0,0 10.408944,-2.109397" />
      <line x1="-55.66251" y1="17.616223" x2="-57.988992" y2="16.618456" />
      <line x1="-54.085895" y1="13.940045" x2="-56.412377" y2="12.942278" />
      <line x1="-30.408317" y1="1.275448" x2="-32.7348" y2="0.277681" />
      <line x1="-28.831702" y1="-2.400731" x2="-31.158185" y2="-3.398497" />
      <line x1="-64.366829" y1="26.068875" x2="-64.366829" y2="36.268851" />
      <line x1="-67.066829" y1="26.068875" x2="-67.066829" y2="36.268851" />
      <line x1="8.529617" y1="57.332225" x2="8.529617" y2="67.532201" />
      <line x1="5.829617" y1="57.332225" x2="5.829617" y2="67.532201" />
      <line x1="-5.019477" y1="-12.331946" x2="-5.019477" y2="-2.13197" />
      <line x1="-7.719477" y1="-12.331946" x2="-7.719477" y2="-2.13197" />
      <line x1="61.526969" y1="-9.968529" x2="61.526969" y2="29.131379" />
      <line x1="12.179617" y1="28.432293" x2="12.179617" y2="67.532201" />
      <line x1="2.179617" y1="28.432293" x2="2.179617" y2="67.532201" />
      <line x1="-1.369477" y1="-41.231878" x2="-1.369477" y2="-2.13197" />
      <line x1="-11.369477" y1="-41.231878" x2="-11.369477" y2="-2.13197" />
      <line x1="-60.716829" y1="-2.831056" x2="-60.716829" y2="36.268851" />
      <line x1="67.876969" y1="18.931403" x2="67.876969" y2="29.131379" />
      <line x1="65.176969" y1="18.931403" x2="65.176969" y2="29.131379" />
      <line x1="-48.742832" y1="43.396066" x2="-50.636896" y2="44.621624" />
      <line x1="-50.915821" y1="40.037775" x2="-52.809885" y2="41.263333" />
      <line x1="-17.723068" y1="56.699619" x2="-19.617132" y2="57.925177" />
      <line x1="-19.896057" y1="53.341328" x2="-21.790121" y2="54.566886" />
      <line x1="-35.76138" y1="-16.383062" x2="-35.76138" y2="-8.73308" />
      <line x1="-38.46138" y1="-16.383062" x2="-38.46138" y2="-8.73308" />
      <line x1="15.280037" y1="5.507246" x2="15.280037" y2="13.157228" />
      <line x1="12.580037" y1="5.507246" x2="12.580037" y2="13.157228" />
      <line x1="25.746553" y1="-28.723513" x2="25.746553" y2="-21.073531" />
      <line x1="23.046553" y1="-28.723513" x2="23.046553" y2="-21.073531" />
      <line x1="29.368243" y1="-19.033503" x2="30.504682" y2="-19.768838" />
      <line x1="42.406177" y1="1.116244" x2="43.542615" y2="0.380909" />
      <line x1="31.218457" y1="50.524815" x2="33.54494" y2="51.522582" />
      <line x1="29.641842" y1="54.200993" x2="31.968324" y2="55.19876" />
      <line x1="56.472649" y1="34.18404" x2="58.799132" y2="35.181807" />
      <line x1="54.896034" y1="37.860218" x2="57.222517" y2="38.857985" />
      <line x1="-29.11138" y1="-9.583078" x2="-29.11138" y2="-6.183086" />
      <line x1="-45.11138" y1="-9.583078" x2="-45.11138" y2="-6.183086" />
      <line x1="21.930037" y1="12.30723" x2="21.930037" y2="15.707222" />
      <line x1="5.930037" y1="12.30723" x2="5.930037" y2="15.707222" />
      <line x1="16.30507" y1="-6.399792" x2="16.30507" y2="24.200135" />
      <line x1="-15.49493" y1="-6.399792" x2="-15.49493" y2="24.200135" />
      <line x1="32.396553" y1="-21.923529" x2="32.396553" y2="-18.523537" />
      <line x1="16.396553" y1="-21.923529" x2="16.396553" y2="-18.523537" />
      <line x1="13.30507" y1="-6.399792" x2="13.30507" y2="24.200135" />
      <line x1="-12.49493" y1="-6.399792" x2="-12.49493" y2="24.200135" />
      <line x1="-68.565071" y1="-16.456193" x2="-68.565071" y2="28.9337" />
      <line x1="-20.582106" y1="-47.503666" x2="-20.582106" y2="-2.113773" />
      <line x1="-68.565071" y1="-16.456193" x2="-68.099774" y2="-16.766638" />
      <line x1="-20.582106" y1="-47.503666" x2="-20.116809" y2="-47.814111" />
      <line x1="7.554873" y1="-49.022277" x2="7.554873" y2="-3.632384" />
      <line x1="7.554873" y1="-49.022277" x2="7.17606" y2="-49.287164" />
      <line x1="66.492425" y1="-23.745526" x2="66.492425" y2="21.644367" />
      <line x1="67.048728" y1="-3.631144" x2="67.048728" y2="35.468764" />
      <line x1="64.59836" y1="-16.229983" x2="64.59836" y2="22.869925" />
      <line x1="19.065763" y1="27.416329" x2="19.065763" y2="66.516237" />
      <line x1="5.660808" y1="-41.506734" x2="5.660808" y2="-2.406826" />
      <line x1="-4.850668" y1="28.707149" x2="-4.850668" y2="67.807056" />
      <line x1="-18.255623" y1="-40.215914" x2="-18.255623" y2="-1.116006" />
      <line x1="-63.78822" y1="3.430398" x2="-63.78822" y2="42.530306" />
      <line x1="-66.238589" y1="-9.168441" x2="-66.238589" y2="29.931466" />
      <line x1="66.492425" y1="-23.745526" x2="66.113612" y2="-24.010413" />
    </g>
    <g fill="none" stroke="rgb(12,12,12)" stroke-width="0.21428571428571427" id="visible">
      <path d="M -65.682285,-1.634029 A 20.0,10.535718450670133 180.0 0,1 -73.055189,-9.804417" />
      <path d="M -73.055189,-9.804417 A 20.0,10.535718450670133 180.0 0,1 -68.751181,-16.333924" />
      <path d="M -73.055189,35.585476 A 20.0,10.535718450670132 -2.601542611448587e-15 0,0 -65.682285,43.755864" />
      <line x1="-68.099774" y1="-16.766638" x2="-20.116809" y2="-47.814111" />
      <line x1="-65.682285" y1="43.755864" x2="-6.744733" y2="69.032615" />
      <path d="M -6.744733,69.032615 A 20.0,10.535718450670132 -2.601542611448587e-15 0,0 21.392246,67.514003" />
      <path d="M 69.375211,36.466531 A 20.0,10.535718450670132 -2.601542611448587e-15 0,0 73.865329,29.814754" />
      <line x1="21.392246" y1="67.514003" x2="69.375211" y2="36.466531" />
      <path d="M -65.303472,-2.389139 A 19.4,10.219646897150028 180.0 0,1 -68.280301,-16.648037" />
      <path d="M -68.280301,-16.648037 A 19.4,10.219646897150028 180.0 0,1 -68.099774,-16.766638" />
      <line x1="-6.744733" y1="23.642722" x2="-65.682285" y2="-1.634029" />
      <path d="M -50.172403,43.607657 A 2.0,1.3183368722426065 57.09503335928887 0,1 -50.636896,44.621624" />
      <path d="M -50.636896,44.621624 A 2.0,1.3183368722426065 57.09503335928887 0,1 -52.809885,41.263333" />
      <path d="M -52.809885,41.263333 A 2.0,1.3183368722426065 57.09503335928887 0,1 -50.172403,43.607657" />
      <path d="M -19.152638,56.911209 A 2.0,1.3183368722426065 57.09503335928887 0,1 -19.617132,57.925177" />
      <path d="M -19.617132,57.925177 A 2.0,1.3183368722426065 57.09503335928887 0,1 -21.790121,54.566886" />
      <path d="M -21.790121,54.566886 A 2.0,1.3183368722426065 57.09503335928887 0,1 -19.152638,56.911209" />
      <path d="M -20.116809,-47.814111 A 19.4,10.219646897150026 180.0 0,1 7.17606,-49.287164" />
      <line x1="-6.36592" y1="22.887611" x2="-65.303472" y2="-2.389139" />
      <line x1="7.17606" y1="-49.287164" x2="66.113612" y2="-24.010413" />
      <path d="M 20.926949,21.414558 A 19.4,10.219646897150026 180.0 0,1 -6.36592,22.887611" />
      <path d="M 66.113612,-24.010413 A 19.4,10.219646897150026 180.0 0,1 69.090441,-22.41876" />
      <path d="M 69.090441,-22.41876 A 19.4,10.219646897150026 180.0 0,1 68.909914,-9.632914" />
      <line x1="68.909914" y1="-9.632914" x2="20.926949" y2="21.414558" />
      <path d="M -38.444201,-16.496153 A 1.35,0.7111609954202339 -2.908090689063779e-15 0,0 -38.46138,-16.383062" />
      <path d="M -38.46138,-16.383062 A 1.35,0.7111609954202339 -2.908090689063779e-15 0,0 -35.76138,-16.383062" />
      <path d="M -35.76138,-16.383062 A 1.35,0.7111609954202339 -2.908090689063779e-15 0,0 -38.444201,-16.496153" />
      <path d="M 14.41053,6.171837 A 1.35,0.7111609954202339 -3.1739785977928885e-15 0,0 15.280037,5.507246" />
      <path d="M 15.280037,5.507246 A 1.35,0.7111609954202339 -3.1739785977928885e-15 1,0 12.580037,5.507246" />
      <path d="M 12.580037,5.507246 A 1.35,0.7111609954202339 -3.1739785977928885e-15 0,0 14.41053,6.171837" />
      <path d="M 25.248882,-29.275014 A 1.35,0.7111609954202339 -2.1268232459325057e-15 0,0 23.046553,-28.723513" />
      <path d="M 23.046553,-28.723513 A 1.35,0.7111609954202339 -2.1268232459325057e-15 1,0 25.746553,-28.723513" />
      <path d="M 25.746553,-28.723513 A 1.35,0.7111609954202339 -2.1268232459325057e-15 0,0 25.248882,-29.275014" />
      <path d="M 21.392246,22.124111 A 20.0,10.535718450670132 180.0 0,1 -6.744733,23.642722" />
      <path d="M 69.561321,-22.104646 A 20.0,10.535718450670132 180.0 0,1 73.865329,-15.575139" />
      <path d="M 73.865329,-15.575139 A 20.0,10.535718450670132 180.0 0,1 69.375211,-8.923362" />
      <line x1="69.375211" y1="-8.923362" x2="21.392246" y2="22.124111" />
      <path d="M 32.756632,51.660675 A 2.0,1.073300637551134 -66.78679231421206 0,1 33.54494,51.522582" />
      <path d="M 33.54494,51.522582 A 2.0000001686963493,1.0733007280820837 -66.78679231421206 0,1 31.968324,55.19876" />
      <path d="M 31.968324,55.19876 A 2.0,1.073300637551134 -66.78679231421206 0,1 32.756632,51.660675" />
      <path d="M 58.010824,35.3199 A 2.0,1.073300637551134 -66.78679231421206 0,1 58.799132,35.181807" />
      <path d="M 58.799132,35.181807 A 2.0,1.073300637551134 -66.78679231421206 0,1 57.222517,38.857985" />
      <path d="M 57.222517,38.857985 A 2.0,1.073300637551134 -66.78679231421206 0,1 58.010824,35.3199" />
      <path d="M -50.213981,43.198838 A 2.0,1.3183368722426065 57.09503335928887 0,1 -51.338736,41.460561" />
      <path d="M -19.194217,56.502391 A 2.0,1.3183368722426065 57.09503335928887 0,1 -20.318972,54.764114" />
      <line x1="-65.682285" y1="-1.634029" x2="-65.682285" y2="43.755864" />
      <line x1="-65.682285" y1="-1.634029" x2="-65.303472" y2="-2.389139" />
      <line x1="-6.744733" y1="23.642722" x2="-6.744733" y2="69.032615" />
      <line x1="21.392246" y1="22.124111" x2="21.392246" y2="67.514003" />
      <line x1="69.375211" y1="-8.923362" x2="69.375211" y2="36.466531" />
      <line x1="-6.744733" y1="23.642722" x2="-6.36592" y2="22.887611" />
      <line x1="21.392246" y1="22.124111" x2="20.926949" y2="21.414558" />
      <line x1="69.375211" y1="-8.923362" x2="68.909914" y2="-9.632914" />
      <line x1="-73.055189" y1="35.585476" x2="-73.055189" y2="-9.804417" />
      <line x1="-68.280301" y1="-16.648037" x2="-68.751181" y2="-16.333924" />
      <line x1="73.865329" y1="29.814754" x2="73.865329" y2="-15.575139" />
      <line x1="69.090441" y1="-22.41876" x2="69.561321" y2="-22.104646" />
    </g>
  </g>
</svg>