<?xml version='1.0' encoding='utf-8'?>
<svg width="194.919756mm" height="167.639256mm" viewBox="-40.628278 -34.981346 81.216565 69.84969" version="1.1" xmlns="http://www.w3.org/2000/svg">
  <g transform="scale(1,-1)" stroke-linecap="round">
    <g fill="none" stroke="rgb(204,204,204)" stroke-width="0.05" id="h">
      <line x1="-37.189514" y1="-0.451026" x2="-9.706508" y2="-29.427213" />
      <path d="M -37.189514,-0.451026 A 4.0,3.373139629582128 -4.2534332645189994e-16 0,0 -38.065778,1.655884" />
      <path d="M -4.084318,-29.954502 A 4.0,3.373139629582128 -4.2534332645189994e-16 0,0 -9.706508,-29.427213" />
      <line x1="-4.084318" y1="-29.954502" x2="36.524242" y2="-2.56468" />
      <path d="M 38.025787,0.069519 A 4.0,3.373139629582128 -4.2534332645189994e-16 0,0 36.524242,-2.56468" />
      <path d="M -20.933499,10.883537 Q -20.80158,10.843334 -20.639918,10.82451 Q -20.478256,10.805687 -19.961999,10.795352" />
      <path d="M -19.961999,10.795352 Q -19.342034,10.78115 -19.039491,10.737396 Q -18.736947,10.693641 -18.538691,10.603274 Q -18.340435,10.512906 -18.20624,10.371421 Q -17.988683,10.142043 -17.988683,9.866328" />
      <path d="M -17.988683,9.866328 Q -17.988683,9.807706 -17.998518,9.74699 Q -18.054609,9.400706 -18.456897,9.12937 Q -18.855372,8.860605 -19.257243,8.875591 Q -19.659114,8.890578 -20.011,9.198957" />
      <line x1="-19.687258" y1="9.467406" x2="-20.011" y2="9.198957" />
      <path d="M -19.687258,9.467406 Q -19.47491,9.246818 -19.207252,9.221715 Q -18.939594,9.196612 -18.691739,9.363786 Q -18.45723,9.521959 -18.42346,9.738507 Q -18.417669,9.775639 -18.417669,9.811463" />
      <path d="M -18.417669,9.811463 Q -18.417669,9.984554 -18.552857,10.127088 Q -18.708401,10.291082 -19.043158,10.367153 Q -19.377916,10.443225 -20.132475,10.451008" />
      <path d="M -20.132475,10.451008 Q -20.61823,10.455552 -20.92001,10.505094 Q -21.22179,10.554636 -21.443302,10.666227" />
      <path d="M -21.673957,10.840195 Q -21.578649,10.733117 -21.443302,10.666227" />
      <line x1="-19.826484" y1="12.086286" x2="-21.673957" y2="10.840195" />
      <line x1="-19.56267" y1="11.808139" x2="-19.826484" y2="12.086286" />
      <line x1="-20.933499" y1="10.883537" x2="-19.56267" y2="11.808139" />
      <path d="M -18.866458,11.713548 Q -19.058159,11.962136 -19.058159,12.230039" />
      <path d="M -19.058159,12.230039 Q -19.058159,12.304167 -19.043482,12.379775 Q -18.975761,12.72863 -18.607792,12.976819 Q -18.199784,13.252014 -17.729285,13.217408 Q -17.258785,13.182802 -16.965997,12.874107 Q -16.742375,12.638298 -16.7424,12.385314" />
      <path d="M -16.7424,12.385314 Q -16.7424,12.149707 -16.937897,11.941344" />
      <path d="M -16.937897,11.941344 C -16.764028,11.977769 -16.605033,11.97604 -16.460912,11.936157 C -16.316792,11.896275 -16.196442,11.82542 -16.099863,11.723594 C -15.975806,11.593347 -15.908131,11.431593 -15.905957,11.254171" />
      <path d="M -15.905957,11.254171 Q -15.905957,11.090496 -15.993965,10.926349 Q -16.107995,10.713667 -16.336784,10.559352 Q -16.668528,10.335596 -17.043329,10.345114 Q -17.418129,10.354632 -17.75706,10.603205" />
      <line x1="-17.462674" y1="10.886126" x2="-17.75706" y2="10.603205" />
      <path d="M -17.462674,10.886126 C -17.303059,10.761787 -17.145215,10.694252 -16.989145,10.68352 C -16.833074,10.672789 -16.688308,10.712432 -16.554848,10.802448 C -16.398737,10.906521 -16.319977,11.040185 -16.31957,11.189395" />
      <path d="M -16.31957,11.189395 Q -16.31957,11.345456 -16.44648,11.479261 Q -16.637097,11.680234 -16.903998,11.658394 Q -17.170899,11.636553 -17.390156,11.488668 Q -17.411128,11.474523 -17.442397,11.44816" />
      <line x1="-17.721468" y1="11.676471" x2="-17.442397" y2="11.44816" />
      <path d="M -17.721468,11.676471 Q -17.546069,11.742048 -17.448834,11.807632 Q -17.210512,11.968376 -17.178836,12.201966 Q -17.174292,12.235481 -17.174292,12.268291" />
      <path d="M -17.174292,12.268291 C -17.174292,12.39887 -17.228279,12.52108 -17.336253,12.63492 C -17.468414,12.774262 -17.634835,12.853588 -17.835515,12.872897 C -18.036195,12.892206 -18.217246,12.847422 -18.37867,12.738545 C -18.538677,12.629713 -18.625526,12.490897 -18.62895,12.31896" />
      <path d="M -18.62895,12.31896 Q -18.62895,12.139884 -18.486676,11.906433" />
      <line x1="-18.866458" y1="11.713548" x2="-18.486676" y2="11.906433" />
      <path d="M -16.09722,14.601615 Q -15.830299,14.781649 -15.608954,14.866353 Q -15.387608,14.951057 -15.19239,14.956184 Q -14.997172,14.961311 -14.779279,14.874961 Q -14.561387,14.788611 -14.404318,14.623009 Q -14.202298,14.409983 -14.201857,14.157168" />
      <path d="M -14.201857,14.157168 Q -14.201857,13.922894 -14.389181,13.697321" />
      <path d="M -14.389181,13.697321 Q -14.115032,13.747777 -13.891227,13.679914 Q -13.667422,13.612052 -13.524078,13.46092 Q -13.370059,13.298533 -13.338631,13.07587 Q -13.332343,13.031322 -13.332343,12.987598" />
      <path d="M -13.332343,12.987598 Q -13.332343,12.812779 -13.43286,12.651137 Q -13.558518,12.449066 -13.878823,12.233025" />
      <line x1="-14.92744" y1="11.52575" x2="-13.878823" y2="12.233025" />
      <line x1="-17.162996" y1="13.882766" x2="-14.92744" y2="11.52575" />
      <line x1="-16.09722" y1="14.601615" x2="-17.162996" y2="13.882766" />
      <path d="M -13.005641,15.666575 Q -13.197342,15.915163 -13.197342,16.183066" />
      <path d="M -13.197342,16.183066 Q -13.197342,16.257195 -13.182665,16.332802 Q -13.114944,16.681657 -12.746975,16.929846 Q -12.338967,17.205041 -11.868468,17.170435 Q -11.397968,17.135829 -11.10518,16.827134 Q -10.881559,16.591326 -10.881583,16.338341" />
      <path d="M -10.881583,16.338341 Q -10.881583,16.102734 -11.077081,15.894371" />
      <path d="M -11.077081,15.894371 C -10.903211,15.930796 -10.744216,15.929067 -10.600095,15.889185 C -10.455975,15.849302 -10.335625,15.778448 -10.239046,15.676621 C -10.114989,15.546374 -10.047314,15.38462 -10.04514,15.207198" />
      <path d="M -10.04514,15.207198 Q -10.04514,15.043523 -10.133148,14.879376 Q -10.247178,14.666694 -10.475967,14.512379 Q -10.807711,14.288623 -11.182512,14.298141 Q -11.557312,14.307659 -11.896243,14.556232" />
      <line x1="-11.601857" y1="14.839153" x2="-11.896243" y2="14.556232" />
      <path d="M -11.601857,14.839153 C -11.442242,14.714814 -11.284399,14.647279 -11.128328,14.636547 C -10.972257,14.625816 -10.827491,14.665459 -10.694031,14.755475 C -10.53792,14.859548 -10.459161,14.993212 -10.458753,15.142422" />
      <path d="M -10.458753,15.142422 Q -10.458753,15.298483 -10.585663,15.432288 Q -10.77628,15.633262 -11.043181,15.611421 Q -11.310082,15.58958 -11.529339,15.441695 Q -11.550311,15.42755 -11.58158,15.401187" />
      <line x1="-11.860651" y1="15.629498" x2="-11.58158" y2="15.401187" />
      <path d="M -11.860651,15.629498 Q -11.685252,15.695075 -11.588017,15.760659 Q -11.349695,15.921403 -11.31802,16.154993 Q -11.313475,16.188508 -11.313475,16.221318" />
      <path d="M -11.313475,16.221318 C -11.313475,16.351897 -11.367462,16.474107 -11.475436,16.587948 C -11.607597,16.727289 -11.774018,16.806615 -11.974698,16.825924 C -12.175378,16.845234 -12.356429,16.80045 -12.517853,16.691572 C -12.67786,16.58274 -12.764709,16.443924 -12.768133,16.271988" />
      <path d="M -12.768133,16.271988 Q -12.768133,16.092911 -12.625859,15.85946" />
      <line x1="-13.005641" y1="15.666575" x2="-12.625859" y2="15.85946" />
      <path d="M -10.955986,17.73448 L -10.955989,17.73664" />
      <path d="M -10.955989,17.73664 C -10.955989,18.002347 -10.821622,18.22583 -10.552887,18.407087 C -10.145316,18.68597 -9.692369,18.666711 -9.237075,18.420637 C -9.008575,18.296184 -8.76318,18.095688 -8.500891,17.819149 C -8.279267,17.585484 -8.124109,17.385639 -8.035418,17.219614 C -7.927736,17.018733 -7.872941,16.832668 -7.871033,16.661419" />
      <path d="M -7.871033,16.661419 C -7.871221,16.408154 -8.001127,16.180014 -8.270058,16.00023 C -8.675146,15.723296 -9.126767,15.740264 -9.583391,15.985715 C -9.812527,16.109739 -10.059256,16.311092 -10.323578,16.589776 C -10.743444,17.032453 -10.954247,17.414021 -10.955986,17.73448" />
      <path d="M -8.106757,19.991054 C -7.937707,20.105076 -7.775333,20.192625 -7.619635,20.253702 C -7.463936,20.314779 -7.315358,20.350403 -7.173901,20.360572 C -7.032443,20.370741 -6.879995,20.356688 -6.716556,20.318411 C -6.553118,20.280135 -6.38104,20.208579 -6.200325,20.103744 C -6.019609,19.998909 -5.844364,19.856992 -5.674587,19.677992 C -5.351366,19.336878 -5.175255,18.984292 -5.175144,18.645595" />
      <path d="M -5.175144,18.645595 Q -5.175144,18.530892 -5.20157,18.417871" />
      <path d="M -5.451366,17.972573 Q -5.25536,18.181229 -5.20157,18.417871" />
      <path d="M -5.916959,17.603175 Q -5.590934,17.823074 -5.451366,17.972573" />
      <line x1="-6.87978" y1="16.953768" x2="-5.916959" y2="17.603175" />
      <line x1="-9.115336" y1="19.310784" x2="-6.87978" y2="16.953768" />
      <line x1="-8.106757" y1="19.991054" x2="-9.115336" y2="19.310784" />
      <line x1="-23.914305" y1="3.103682" x2="2.637445" y2="21.012412" />
      <line x1="-23.914305" y1="3.103682" x2="-2.677437" y2="-19.287009" />
      <line x1="2.637445" y1="21.012412" x2="23.874313" y2="-1.378279" />
      <line x1="-2.677437" y1="-19.287009" x2="23.874313" y2="-1.378279" />
      <path d="M -27.733304,0.582586 A 1.0,0.843284907395532 -4.2534332645189994e-16 0,0 -27.514238,0.055859" />
      <path d="M -27.514238,0.055859 A 1.0,0.843284907395532 -4.2534332645189994e-16 0,0 -27.532688,-0.105381" />
      <path d="M -29.495788,-0.105381 A 1.0,0.843284907395532 -4.2534332645189994e-16 0,0 -29.514238,0.055859" />
      <path d="M -29.514238,0.055859 A 1.0,0.843284907395532 -4.2534332645189994e-16 0,0 -27.733304,0.582586" />
      <path d="M -13.064631,2.111291 A 2.5,2.10821226848883 180.0 0,1 -17.516965,0.794473" />
      <path d="M -17.516965,0.794473 A 2.5,2.10821226848883 180.0 0,1 -17.397102,0.149513" />
      <path d="M -12.636828,0.149513 A 2.5,2.10821226848883 180.0 0,1 -12.516965,0.794473" />
      <path d="M -12.516965,0.794473 A 2.5,2.10821226848883 180.0 0,1 -13.064631,2.111291" />
      <path d="M 4.933269,14.250586 A 2.5,2.10821226848883 180.0 0,1 0.480934,12.933768" />
      <path d="M 0.480934,12.933768 A 2.5,2.10821226848883 180.0 0,1 0.600797,12.288807" />
      <path d="M 5.361071,12.288807 A 2.5,2.10821226848883 180.0 0,1 5.480934,12.933768" />
      <path d="M 5.480934,12.933768 A 2.5,2.10821226848883 180.0 0,1 4.933269,14.250586" />
      <path d="M -1.068591,-10.536506 A 2.5,2.10821226848883 180.0 0,1 -5.520926,-11.853325" />
      <path d="M -5.520926,-11.853325 A 2.5,2.10821226848883 180.0 0,1 -5.401063,-12.498285" />
      <path d="M -0.640789,-12.498285 A 2.5,2.10821226848883 180.0 0,1 -0.520926,-11.853325" />
      <path d="M -0.520926,-11.853325 A 2.5,2.10821226848883 180.0 0,1 -1.068591,-10.536506" />
      <path d="M 8.960743,6.597586 A 11.5,9.697776435048617 180.0 0,1 -11.519996,0.540221" />
      <path d="M -11.519996,0.540221 A 11.5,9.697776435048617 180.0 0,1 -11.494535,-0.104739" />
      <path d="M 11.454543,-0.104739 A 11.5,9.697776435048617 180.0 0,1 11.480004,0.540221" />
      <path d="M 11.480004,0.540221 A 11.5,9.697776435048617 180.0 0,1 8.960743,6.597586" />
      <path d="M 16.929308,1.602788 A 2.5,2.10821226848883 180.0 0,1 12.476974,0.28597" />
      <path d="M 12.476974,0.28597 A 2.5,2.10821226848883 180.0 0,1 12.596837,-0.35899" />
      <path d="M 17.357111,-0.35899 A 2.5,2.10821226848883 180.0 0,1 17.476974,0.28597" />
      <path d="M 17.476974,0.28597 A 2.5,2.10821226848883 180.0 0,1 16.929308,1.602788" />
      <path d="M 29.25518,-0.383569 A 1.0,0.843284907395532 -4.2534332645189994e-16 0,0 29.474246,-0.910296" />
      <path d="M 29.474246,-0.910296 A 1.0,0.843284907395532 -4.2534332645189994e-16 0,0 29.455797,-1.071536" />
      <path d="M 27.492696,-1.071536 A 1.0,0.843284907395532 -4.2534332645189994e-16 0,0 27.474246,-0.910296" />
      <path d="M 27.474246,-0.910296 A 1.0,0.843284907395532 -4.2534332645189994e-16 0,0 29.25518,-0.383569" />
      <line x1="-20.933499" y1="10.883537" x2="-20.933499" y2="10.614804" />
      <line x1="-19.961999" y1="10.795352" x2="-19.961999" y2="10.526619" />
      <path d="M -20.933499,10.614804 Q -20.80158,10.574601 -20.639918,10.555777 Q -20.478256,10.536953 -19.961999,10.526619" />
      <line x1="-20.011" y1="9.198957" x2="-20.011" y2="8.930223" />
      <path d="M -19.961999,10.526619 Q -19.342034,10.512417 -19.039491,10.468662 Q -18.736947,10.424908 -18.538691,10.33454 Q -18.340435,10.244173 -18.20624,10.102687 Q -17.988683,9.87331 -17.988683,9.597595" />
      <path d="M -17.988683,9.597595 Q -17.988683,9.538973 -17.998518,9.478256 Q -18.054609,9.131973 -18.456897,8.860636 Q -18.855372,8.591871 -19.257243,8.606858 Q -19.659114,8.621844 -20.011,8.930223" />
      <line x1="-19.687258" y1="9.467406" x2="-19.687258" y2="9.198673" />
      <line x1="-19.687258" y1="9.198673" x2="-20.011" y2="8.930223" />
      <path d="M -19.687258,9.198673 Q -19.47491,8.978084 -19.207252,8.952981 Q -18.939594,8.927878 -18.691739,9.095053 Q -18.45723,9.253225 -18.42346,9.469773 Q -18.417669,9.506906 -18.417669,9.54273" />
      <path d="M -18.417669,9.54273 Q -18.417669,9.715821 -18.552857,9.858354 Q -18.708401,10.022349 -19.043158,10.09842 Q -19.377916,10.174491 -20.132475,10.182274" />
      <line x1="-21.443302" y1="10.666227" x2="-21.443302" y2="10.397494" />
      <path d="M -20.132475,10.182274 Q -20.61823,10.186819 -20.92001,10.236361 Q -21.22179,10.285903 -21.443302,10.397494" />
      <line x1="-21.673957" y1="10.840195" x2="-21.673957" y2="10.571462" />
      <path d="M -21.673957,10.571462 Q -21.578649,10.464384 -21.443302,10.397494" />
      <line x1="-19.826484" y1="12.086286" x2="-19.826484" y2="11.817553" />
      <line x1="-19.826484" y1="11.817553" x2="-21.673957" y2="10.571462" />
      <line x1="-19.56267" y1="11.808139" x2="-19.56267" y2="11.539406" />
      <line x1="-19.56267" y1="11.539406" x2="-19.826484" y2="11.817553" />
      <line x1="-20.933499" y1="10.614804" x2="-19.56267" y2="11.539406" />
      <line x1="-18.866458" y1="11.713548" x2="-18.866458" y2="11.444814" />
      <line x1="-16.937897" y1="11.941344" x2="-16.937897" y2="11.67261" />
      <path d="M -18.866458,11.444814 Q -19.058159,11.693402 -19.058159,11.961305" />
      <path d="M -19.058159,11.961305 Q -19.058159,12.035434 -19.043482,12.111042 Q -18.975761,12.459896 -18.607792,12.708086 Q -18.199784,12.98328 -17.729285,12.948674 Q -17.258785,12.914069 -16.965997,12.605373 Q -16.742375,12.369565 -16.7424,12.116581" />
      <path d="M -16.7424,12.116581 Q -16.7424,11.880974 -16.937897,11.67261" />
      <line x1="-17.75706" y1="10.603205" x2="-17.75706" y2="10.334471" />
      <path d="M -16.937897,11.67261 C -16.764028,11.709035 -16.605033,11.707306 -16.460912,11.667424 C -16.316792,11.627542 -16.196442,11.556687 -16.099863,11.454861 C -15.975806,11.324613 -15.908131,11.162859 -15.905957,10.985437" />
      <path d="M -15.905957,10.985437 Q -15.905957,10.821762 -15.993965,10.657616 Q -16.107995,10.444933 -16.336784,10.290619 Q -16.668528,10.066862 -17.043329,10.07638 Q -17.418129,10.085898 -17.75706,10.334471" />
      <line x1="-17.462674" y1="10.886126" x2="-17.462674" y2="10.617393" />
      <line x1="-17.462674" y1="10.617393" x2="-17.75706" y2="10.334471" />
      <line x1="-17.442397" y1="11.44816" x2="-17.442397" y2="11.179427" />
      <path d="M -17.462674,10.617393 C -17.303059,10.493053 -17.145215,10.425518 -16.989145,10.414787 C -16.833074,10.404055 -16.688308,10.443698 -16.554848,10.533715 C -16.398737,10.637788 -16.319977,10.771452 -16.31957,10.920662" />
      <path d="M -16.31957,10.920662 Q -16.31957,11.076723 -16.44648,11.210528 Q -16.637097,11.411501 -16.903998,11.38966 Q -17.170899,11.36782 -17.390156,11.219935 Q -17.411128,11.205789 -17.442397,11.179427" />
      <line x1="-17.721468" y1="11.676471" x2="-17.721468" y2="11.407738" />
      <line x1="-17.721468" y1="11.407738" x2="-17.442397" y2="11.179427" />
      <line x1="-18.486676" y1="11.906433" x2="-18.486676" y2="11.637699" />
      <path d="M -17.721468,11.407738 Q -17.546069,11.473315 -17.448834,11.538898 Q -17.210512,11.699643 -17.178836,11.933232 Q -17.174292,11.966747 -17.174292,11.999558" />
      <path d="M -17.174292,11.999558 C -17.174292,12.130137 -17.228279,12.252346 -17.336253,12.366187 C -17.468414,12.505529 -17.634835,12.584854 -17.835515,12.604164 C -18.036195,12.623473 -18.217246,12.578689 -18.37867,12.469811 C -18.538677,12.36098 -18.625526,12.222164 -18.62895,12.050227" />
      <path d="M -18.62895,12.050227 Q -18.62895,11.871151 -18.486676,11.637699" />
      <line x1="-18.866458" y1="11.444814" x2="-18.486676" y2="11.637699" />
      <line x1="-14.389181" y1="13.697321" x2="-14.389181" y2="13.428587" />
      <path d="M -16.09722,14.332882 Q -15.830299,14.512915 -15.608954,14.597619 Q -15.387608,14.682323 -15.19239,14.687451 Q -14.997172,14.692578 -14.779279,14.606228 Q -14.561387,14.519878 -14.404318,14.354276 Q -14.202298,14.141249 -14.201857,13.888435" />
      <path d="M -14.201857,13.888435 Q -14.201857,13.654161 -14.389181,13.428587" />
      <path d="M -14.389181,13.428587 Q -14.115032,13.479044 -13.891227,13.411181 Q -13.667422,13.343318 -13.524078,13.192186 Q -13.370059,13.0298 -13.338631,12.807137 Q -13.332343,12.762589 -13.332343,12.718865" />
      <path d="M -13.332343,12.718865 Q -13.332343,12.544046 -13.43286,12.382403 Q -13.558518,12.180332 -13.878823,11.964292" />
      <line x1="-14.92744" y1="11.52575" x2="-14.92744" y2="11.257016" />
      <line x1="-14.92744" y1="11.257016" x2="-13.878823" y2="11.964292" />
      <line x1="-17.162996" y1="13.882766" x2="-17.162996" y2="13.614033" />
      <line x1="-17.162996" y1="13.614033" x2="-14.92744" y2="11.257016" />
      <line x1="-16.09722" y1="14.332882" x2="-17.162996" y2="13.614033" />
      <line x1="-13.005641" y1="15.666575" x2="-13.005641" y2="15.397841" />
      <line x1="-11.077081" y1="15.894371" x2="-11.077081" y2="15.625637" />
      <path d="M -13.005641,15.397841 Q -13.197342,15.646429 -13.197342,15.914332" />
      <path d="M -13.197342,15.914332 Q -13.197342,15.988461 -13.182665,16.064069 Q -13.114944,16.412924 -12.746975,16.661113 Q -12.338967,16.936307 -11.868468,16.901702 Q -11.397968,16.867096 -11.10518,16.558401 Q -10.881559,16.322592 -10.881583,16.069608" />
      <path d="M -10.881583,16.069608 Q -10.881583,15.834001 -11.077081,15.625637" />
      <line x1="-11.896243" y1="14.556232" x2="-11.896243" y2="14.287499" />
      <path d="M -11.077081,15.625637 C -10.903211,15.662062 -10.744216,15.660334 -10.600095,15.620451 C -10.455975,15.580569 -10.335625,15.509714 -10.239046,15.407888 C -10.114989,15.27764 -10.047314,15.115886 -10.04514,14.938464" />
      <path d="M -10.04514,14.938464 Q -10.04514,14.774789 -10.133148,14.610643 Q -10.247178,14.39796 -10.475967,14.243646 Q -10.807711,14.019889 -11.182512,14.029408 Q -11.557312,14.038926 -11.896243,14.287499" />
      <line x1="-11.601857" y1="14.839153" x2="-11.601857" y2="14.57042" />
      <line x1="-11.601857" y1="14.57042" x2="-11.896243" y2="14.287499" />
      <line x1="-11.58158" y1="15.401187" x2="-11.58158" y2="15.132454" />
      <path d="M -11.601857,14.57042 C -11.442242,14.446081 -11.284399,14.378545 -11.128328,14.367814 C -10.972257,14.357082 -10.827491,14.396725 -10.694031,14.486742 C -10.53792,14.590815 -10.459161,14.724479 -10.458753,14.873689" />
      <path d="M -10.458753,14.873689 Q -10.458753,15.02975 -10.585663,15.163555 Q -10.77628,15.364528 -11.043181,15.342687 Q -11.310082,15.320847 -11.529339,15.172962 Q -11.550311,15.158816 -11.58158,15.132454" />
      <line x1="-11.860651" y1="15.629498" x2="-11.860651" y2="15.360765" />
      <line x1="-11.860651" y1="15.360765" x2="-11.58158" y2="15.132454" />
      <line x1="-12.625859" y1="15.85946" x2="-12.625859" y2="15.590727" />
      <path d="M -11.860651,15.360765 Q -11.685252,15.426342 -11.588017,15.491926 Q -11.349695,15.65267 -11.31802,15.886259 Q -11.313475,15.919774 -11.313475,15.952585" />
      <path d="M -11.313475,15.952585 C -11.313475,16.083164 -11.367462,16.205374 -11.475436,16.319214 C -11.607597,16.458556 -11.774018,16.537881 -11.974698,16.557191 C -12.175378,16.5765 -12.356429,16.531716 -12.517853,16.422839 C -12.67786,16.314007 -12.764709,16.175191 -12.768133,16.003254" />
      <path d="M -12.768133,16.003254 Q -12.768133,15.824178 -12.625859,15.590727" />
      <line x1="-13.005641" y1="15.397841" x2="-12.625859" y2="15.590727" />
      <line x1="-10.955986" y1="17.73448" x2="-10.955986" y2="17.465747" />
      <path d="M -10.955986,17.465747 L -10.955989,17.467906" />
      <path d="M -10.955989,17.467906 C -10.955989,17.733614 -10.821622,17.957096 -10.552887,18.138354 C -10.145316,18.417236 -9.692369,18.397978 -9.237075,18.151903 C -9.008575,18.027451 -8.76318,17.826955 -8.500891,17.550416 C -8.279267,17.316751 -8.124109,17.116906 -8.035418,16.950881 C -7.927736,16.75 -7.872941,16.563935 -7.871033,16.392685" />
      <path d="M -7.871033,16.392685 C -7.871221,16.13942 -8.001127,15.911281 -8.270058,15.731496 C -8.675146,15.454563 -9.126767,15.47153 -9.583391,15.716982 C -9.812527,15.841006 -10.059256,16.042359 -10.323578,16.321042 C -10.743444,16.76372 -10.954247,17.145288 -10.955986,17.465747" />
      <line x1="-5.20157" y1="18.417871" x2="-5.20157" y2="18.149138" />
      <path d="M -8.106757,19.722321 C -7.937707,19.836342 -7.775333,19.923892 -7.619635,19.984969 C -7.463936,20.046046 -7.315358,20.081669 -7.173901,20.091839 C -7.032443,20.102008 -6.879995,20.087954 -6.716556,20.049678 C -6.553118,20.011401 -6.38104,19.939846 -6.200325,19.835011 C -6.019609,19.730176 -5.844364,19.588258 -5.674587,19.409258 C -5.351366,19.068145 -5.175255,18.715558 -5.175144,18.376861" />
      <path d="M -5.175144,18.376861 Q -5.175144,18.262158 -5.20157,18.149138" />
      <line x1="-5.451366" y1="17.972573" x2="-5.451366" y2="17.70384" />
      <path d="M -5.451366,17.70384 Q -5.25536,17.912496 -5.20157,18.149138" />
      <path d="M -5.916959,17.334442 Q -5.590934,17.55434 -5.451366,17.70384" />
      <line x1="-6.87978" y1="16.953768" x2="-6.87978" y2="16.685034" />
      <line x1="-6.87978" y1="16.685034" x2="-5.916959" y2="17.334442" />
      <line x1="-9.115336" y1="19.310784" x2="-9.115336" y2="19.042051" />
      <line x1="-9.115336" y1="19.042051" x2="-6.87978" y2="16.685034" />
      <line x1="-8.106757" y1="19.722321" x2="-9.115336" y2="19.042051" />
      <line x1="-23.914305" y1="3.103682" x2="-23.914305" y2="2.781201" />
      <line x1="2.637445" y1="21.012412" x2="2.637445" y2="20.689932" />
      <line x1="-23.914305" y1="2.781201" x2="2.637445" y2="20.689932" />
      <line x1="-2.677437" y1="-19.287009" x2="-2.677437" y2="-19.609489" />
      <line x1="-23.914305" y1="2.781201" x2="-2.677437" y2="-19.609489" />
      <line x1="23.874313" y1="-1.378279" x2="23.874313" y2="-1.700759" />
      <line x1="2.637445" y1="20.689932" x2="23.874313" y2="-1.700759" />
      <line x1="-2.677437" y1="-19.609489" x2="23.874313" y2="-1.700759" />
      <line x1="-14.821378" y1="11.784639" x2="-15.496925" y2="12.496889" />
      <line x1="-15.496925" y1="12.496889" x2="-14.89254" y2="12.904536" />
      <path d="M -14.89254,12.904536 Q -14.646592,13.070425 -14.5139,13.115106" />
      <path d="M -14.262751,12.161424 Q -13.961512,12.364605 -13.868846,12.481151 Q -13.791184,12.578827 -13.791184,12.68893" />
      <path d="M -13.791184,12.68893 C -13.792818,12.793987 -13.836859,12.892193 -13.923307,12.983548 C -14.079192,13.148246 -14.281728,13.195194 -14.5139,13.115106" />
      <line x1="-14.262751" y1="12.161424" x2="-14.821378" y2="11.784639" />
      <line x1="-15.760739" y1="12.775036" x2="-16.529307" y2="13.585361" />
      <line x1="-16.529307" y1="13.585361" x2="-15.833406" y2="14.054734" />
      <path d="M -15.833406,14.054734 Q -15.654188,14.175614 -15.571063,14.213226" />
      <path d="M -15.114409,13.210975 Q -14.847489,13.391009 -14.74281,13.526203 Q -14.649043,13.647304 -14.649043,13.781312" />
      <path d="M -14.649043,13.781312 C -14.649299,13.893725 -14.695465,13.998553 -14.78754,14.095799 C -14.858704,14.170829 -14.939911,14.224585 -15.03116,14.257068 C -15.216361,14.32282 -15.373643,14.301593 -15.571063,14.213226" />
      <line x1="-15.114409" y1="13.210975" x2="-15.760739" y2="12.775036" />
      <path d="M -9.038707,15.882683 Q -8.737502,15.809026 -8.501086,15.968485 Q -8.279628,16.117854 -8.279628,16.384467" />
      <path d="M -8.279628,16.384467 Q -8.280424,16.407486 -8.281219,16.430505 Q -8.301581,16.730495 -8.853608,17.312514 Q -9.402585,17.891317 -9.746683,17.975589 Q -10.090781,18.05986 -10.327196,17.900401 Q -10.54422,17.754022 -10.54422,17.488542" />
      <path d="M -10.54422,17.488542 Q -10.543354,17.464346 -10.542488,17.440149 Q -10.521363,17.139355 -9.970862,16.558944 Q -9.42036,15.978533 -9.038707,15.882683" />
      <line x1="-6.773718" y1="17.212657" x2="-8.481646" y2="19.013379" />
      <line x1="-8.481646" y1="19.013379" x2="-7.884888" y2="19.415883" />
      <path d="M -5.75369,17.97974 Q -5.645633,18.136962 -5.645633,18.34596" />
      <path d="M -5.645633,18.34596 Q -5.645633,18.411346 -5.65621,18.481801 Q -5.700593,18.777453 -6.051328,19.147244 Q -6.304467,19.414136 -6.555526,19.551934 Q -6.806584,19.689732 -7.043358,19.711939 Q -7.211502,19.727708 -7.409968,19.665027 Q -7.608434,19.602346 -7.884888,19.415883" />
      <path d="M -5.75369,17.97974 Q -5.856655,17.831201 -6.186492,17.608731" />
      <line x1="-6.186492" y1="17.608731" x2="-6.773718" y2="17.212657" />
      <line x1="-14.821378" y1="12.053372" x2="-14.821378" y2="11.784639" />
      <line x1="-15.496925" y1="12.765622" x2="-15.496925" y2="12.496889" />
      <line x1="-14.821378" y1="12.053372" x2="-15.496925" y2="12.765622" />
      <line x1="-15.496925" y1="12.765622" x2="-14.89254" y2="13.17327" />
      <line x1="-14.5139" y1="13.383839" x2="-14.5139" y2="13.115106" />
      <path d="M -14.89254,13.17327 Q -14.646592,13.339158 -14.5139,13.383839" />
      <path d="M -14.262751,12.430157 Q -13.961512,12.633338 -13.868846,12.749885 Q -13.791184,12.84756 -13.791184,12.957663" />
      <path d="M -13.791184,12.957663 C -13.792818,13.062721 -13.836859,13.160927 -13.923307,13.252281 C -14.079192,13.416979 -14.281728,13.463927 -14.5139,13.383839" />
      <line x1="-14.262751" y1="12.430157" x2="-14.821378" y2="12.053372" />
      <line x1="-15.760739" y1="13.043769" x2="-15.760739" y2="12.775036" />
      <line x1="-16.529307" y1="13.854094" x2="-16.529307" y2="13.585361" />
      <line x1="-15.760739" y1="13.043769" x2="-16.529307" y2="13.854094" />
      <line x1="-16.529307" y1="13.854094" x2="-15.833406" y2="14.323468" />
      <line x1="-15.571063" y1="14.481959" x2="-15.571063" y2="14.213226" />
      <path d="M -15.833406,14.323468 Q -15.654188,14.444348 -15.571063,14.481959" />
      <path d="M -15.114409,13.479708 Q -14.847489,13.659742 -14.74281,13.794936 Q -14.649043,13.916037 -14.649043,14.050046" />
      <path d="M -14.649043,14.050046 C -14.649299,14.162458 -14.695465,14.267287 -14.78754,14.364532 C -14.858704,14.439562 -14.939911,14.493318 -15.03116,14.525801 C -15.216361,14.591554 -15.373643,14.570326 -15.571063,14.481959" />
      <line x1="-15.114409" y1="13.479708" x2="-15.760739" y2="13.043769" />
      <line x1="-9.038707" y1="16.151417" x2="-9.038707" y2="15.882683" />
      <path d="M -9.038707,16.151417 Q -8.737502,16.07776 -8.501086,16.237218 Q -8.279628,16.386588 -8.279628,16.6532" />
      <path d="M -8.279628,16.6532 Q -8.280424,16.676219 -8.281219,16.699238 Q -8.301581,16.999228 -8.853608,17.581247 Q -9.402585,18.160051 -9.746683,18.244322 Q -10.090781,18.328593 -10.327196,18.169135 Q -10.54422,18.022756 -10.54422,17.757275" />
      <path d="M -10.54422,17.757275 Q -10.543354,17.733079 -10.542488,17.708882 Q -10.521363,17.408089 -9.970862,16.827677 Q -9.42036,16.247266 -9.038707,16.151417" />
      <line x1="-6.773718" y1="17.48139" x2="-6.773718" y2="17.212657" />
      <line x1="-8.481646" y1="19.282112" x2="-8.481646" y2="19.013379" />
      <line x1="-6.773718" y1="17.48139" x2="-8.481646" y2="19.282112" />
      <line x1="-8.481646" y1="19.282112" x2="-7.884888" y2="19.684616" />
      <line x1="-5.75369" y1="18.248473" x2="-5.75369" y2="17.97974" />
      <path d="M -5.75369,18.248473 Q -5.645633,18.405695 -5.645633,18.614693" />
      <path d="M -5.645633,18.614693 Q -5.645633,18.68008 -5.65621,18.750535 Q -5.700593,19.046186 -6.051328,19.415977 Q -6.304467,19.68287 -6.555526,19.820668 Q -6.806584,19.958466 -7.043358,19.980672 Q -7.211502,19.996442 -7.409968,19.933761 Q -7.608434,19.87108 -7.884888,19.684616" />
      <path d="M -5.75369,18.248473 Q -5.856655,18.099935 -6.186492,17.877464" />
      <line x1="-6.186492" y1="17.877464" x2="-6.773718" y2="17.48139" />
      <line x1="-29.514238" y1="0.055859" x2="-29.514238" y2="-0.266621" />
      <line x1="-27.514238" y1="0.055859" x2="-27.514238" y2="-0.266621" />
      <line x1="-17.516965" y1="0.794473" x2="-17.516965" y2="-0.495448" />
      <line x1="-12.516965" y1="0.794473" x2="-12.516965" y2="-0.495448" />
      <line x1="0.480934" y1="12.933768" x2="0.480934" y2="11.643847" />
      <line x1="5.480934" y1="12.933768" x2="5.480934" y2="11.643847" />
      <line x1="-5.520926" y1="-11.853325" x2="-5.520926" y2="-13.143245" />
      <line x1="-0.520926" y1="-11.853325" x2="-0.520926" y2="-13.143245" />
      <line x1="-11.519996" y1="0.540221" x2="-11.519996" y2="-0.749699" />
      <line x1="11.480004" y1="0.540221" x2="11.480004" y2="-0.749699" />
      <line x1="12.476974" y1="0.28597" x2="12.476974" y2="-1.00395" />
      <line x1="17.476974" y1="0.28597" x2="17.476974" y2="-1.00395" />
      <line x1="27.474246" y1="-0.910296" x2="27.474246" y2="-1.232776" />
      <line x1="29.474246" y1="-0.910296" x2="29.474246" y2="-1.232776" />
      <path d="M -17.988683,9.866328 L -17.988683,9.597595" />
      <path d="M -18.417669,9.811463 L -18.417669,9.54273" />
      <path d="M -19.058159,12.230039 L -19.058159,11.961305" />
      <path d="M -16.7424,12.385314 L -16.7424,12.116581" />
      <path d="M -15.905957,11.254171 L -15.905957,10.985437" />
      <path d="M -16.31957,11.189395 L -16.31957,10.920662" />
      <path d="M -17.174292,12.268291 L -17.174292,11.999558" />
      <path d="M -18.62895,12.31896 L -18.62895,12.050227" />
      <path d="M -14.201857,14.157168 L -14.201857,13.888435" />
      <path d="M -13.332343,12.987598 L -13.332343,12.718865" />
      <path d="M -13.197342,16.183066 L -13.197342,15.914332" />
      <path d="M -10.881583,16.338341 L -10.881583,16.069608" />
      <path d="M -10.04514,15.207198 L -10.04514,14.938464" />
      <path d="M -10.458753,15.142422 L -10.458753,14.873689" />
      <path d="M -11.313475,16.221318 L -11.313475,15.952585" />
      <path d="M -12.768133,16.271988 L -12.768133,16.003254" />
      <path d="M -10.955989,17.73664 L -10.955989,17.467906" />
      <path d="M -7.871033,16.661419 L -7.871033,16.392685" />
      <path d="M -5.175144,18.645595 L -5.175144,18.376861" />
      <path d="M -13.791184,12.957663 L -13.791184,12.68893" />
      <path d="M -14.649043,14.050046 L -14.649043,13.781312" />
      <path d="M -8.279628,16.6532 L -8.279628,16.384467" />
      <path d="M -10.54422,17.757275 L -10.54422,17.488542" />
      <path d="M -5.645633,18.614693 L -5.645633,18.34596" />
      <line x1="-37.189514" y1="-2.063426" x2="-37.189514" y2="-0.451026" />
      <line x1="-9.706508" y1="-31.039613" x2="-9.706508" y2="-29.427213" />
      <line x1="-4.084318" y1="-31.566903" x2="-4.084318" y2="-29.954502" />
      <line x1="36.524242" y1="-4.17708" x2="36.524242" y2="-2.56468" />
      <line x1="-20.132475" y1="10.451008" x2="-20.132475" y2="10.182274" />
      <line x1="-16.09722" y1="14.601615" x2="-16.09722" y2="14.332882" />
      <line x1="-13.878823" y1="12.233025" x2="-13.878823" y2="11.964292" />
      <line x1="-8.106757" y1="19.991054" x2="-8.106757" y2="19.722321" />
      <line x1="-5.916959" y1="17.603175" x2="-5.916959" y2="17.334442" />
      <line x1="-14.89254" y1="13.17327" x2="-14.89254" y2="12.904536" />
      <line x1="-14.262751" y1="12.430157" x2="-14.262751" y2="12.161424" />
      <line x1="-15.833406" y1="14.323468" x2="-15.833406" y2="14.054734" />
      <line x1="-15.114409" y1="13.479708" x2="-15.114409" y2="13.210975" />
      <line x1="-7.884888" y1="19.684616" x2="-7.884888" y2="19.415883" />
      <line x1="-6.186492" y1="17.877464" x2="-6.186492" y2="17.608731" />
    </g>
    <g fill="none" stroke="rgb(12,12,12)" stroke-width="0.125" id="v">
      <line x1="-37.189514" y1="-2.063426" x2="-9.706508" y2="-31.039613" />
      <path d="M -37.189514,-2.063426 A 4.0,3.373139629582128 -4.2534332645189994e-16 0,0 -38.065778,0.043484" />
      <path d="M -38.065778,0.043484 A 4.0,3.373139629582128 -4.2534332645189994e-16 0,0 -36.564233,2.677682" />
      <path d="M -38.065778,1.655884 A 4.0,3.373139629582128 -4.2534332645189994e-16 0,0 -36.564233,4.290083" />
      <path d="M -4.084318,-31.566903 A 4.0,3.373139629582128 -4.2534332645189994e-16 0,0 -9.706508,-31.039613" />
      <line x1="-36.564233" y1="2.677682" x2="4.044326" y2="30.067505" />
      <line x1="-4.084318" y1="-31.566903" x2="36.524242" y2="-4.17708" />
      <path d="M 4.044326,30.067505 A 4.0,3.373139629582128 -4.2534332645189994e-16 0,0 9.666516,29.540215" />
      <path d="M 37.149522,0.564028 A 4.0,3.373139629582128 -4.2534332645189994e-16 0,0 38.025787,-1.542881" />
      <path d="M 38.025787,-1.542881 A 4.0,3.373139629582128 -4.2534332645189994e-16 0,0 36.524242,-4.17708" />
      <line x1="9.666516" y1="29.540215" x2="37.149522" y2="0.564028" />
      <path d="M -27.733304,0.260106 A 1.0,0.843284907395532 -4.2534332645189994e-16 0,0 -27.514238,-0.266621" />
      <path d="M -27.514238,-0.266621 A 1.0,0.843284907395532 -4.2534332645189994e-16 0,0 -29.514238,-0.266621" />
      <path d="M -29.514238,-0.266621 A 1.0,0.843284907395532 -4.2534332645189994e-16 0,0 -27.733304,0.260106" />
      <path d="M -13.064631,0.821371 A 2.5,2.10821226848883 -4.2534332645189994e-16 0,0 -12.516965,-0.495448" />
      <path d="M -12.516965,-0.495448 A 2.5,2.10821226848883 -4.2534332645189994e-16 0,0 -17.516965,-0.495448" />
      <path d="M -17.516965,-0.495448 A 2.5,2.10821226848883 -4.2534332645189994e-16 0,0 -13.064631,0.821371" />
      <path d="M 4.933269,12.960666 A 2.5,2.10821226848883 -4.2534332645189994e-16 0,0 5.480934,11.643847" />
      <path d="M 5.480934,11.643847 A 2.5,2.10821226848883 -4.2534332645189994e-16 0,0 0.480934,11.643847" />
      <path d="M 0.480934,11.643847 A 2.5,2.10821226848883 -4.2534332645189994e-16 0,0 4.933269,12.960666" />
      <path d="M -1.068591,-11.826427 A 2.5,2.10821226848883 -4.2534332645189994e-16 0,0 -0.520926,-13.143245" />
      <path d="M -0.520926,-13.143245 A 2.5,2.10821226848883 -4.2534332645189994e-16 0,0 -5.520926,-13.143245" />
      <path d="M -5.520926,-13.143245 A 2.5,2.10821226848883 -4.2534332645189994e-16 0,0 -1.068591,-11.826427" />
      <path d="M 8.960743,5.307666 A 11.5,9.697776435048617 -4.2534332645189994e-16 0,0 11.480004,-0.749699" />
      <path d="M 11.480004,-0.749699 A 11.5,9.697776435048617 -4.2534332645189994e-16 0,0 -11.519996,-0.749699" />
      <path d="M -11.519996,-0.749699 A 11.5,9.697776435048617 -4.2534332645189994e-16 0,0 8.960743,5.307666" />
      <path d="M 16.929308,0.312868 A 2.5,2.10821226848883 -4.2534332645189994e-16 0,0 17.476974,-1.00395" />
      <path d="M 17.476974,-1.00395 A 2.5,2.10821226848883 -4.2534332645189994e-16 0,0 12.476974,-1.00395" />
      <path d="M 12.476974,-1.00395 A 2.5,2.10821226848883 -4.2534332645189994e-16 0,0 16.929308,0.312868" />
      <path d="M 29.25518,-0.706049 A 1.0,0.843284907395532 -4.2534332645189994e-16 0,0 29.474246,-1.232776" />
      <path d="M 29.474246,-1.232776 A 1.0,0.843284907395532 -4.2534332645189994e-16 0,0 27.474246,-1.232776" />
      <path d="M 27.474246,-1.232776 A 1.0,0.843284907395532 -4.2534332645189994e-16 0,0 29.25518,-0.706049" />
      <line x1="-36.564233" y1="4.290083" x2="4.044326" y2="31.679905" />
      <path d="M 4.044326,31.679905 A 4.0,3.373139629582128 -4.2534332645189994e-16 0,0 9.666516,31.152616" />
      <path d="M 37.149522,2.176428 A 4.0,3.373139629582128 -4.2534332645189994e-16 0,0 38.025787,0.069519" />
      <line x1="9.666516" y1="31.152616" x2="37.149522" y2="2.176428" />
      <path d="M -27.532688,-0.105381 A 1.0,0.843284907395532 -4.2534332645189994e-16 0,0 -29.495788,-0.105381" />
      <path d="M -17.397102,0.149513 A 2.5,2.10821226848883 180.0 0,1 -12.636828,0.149513" />
      <path d="M 0.600797,12.288807 A 2.5,2.10821226848883 180.0 0,1 5.361071,12.288807" />
      <path d="M -5.401063,-12.498285 A 2.5,2.10821226848883 180.0 0,1 -0.640789,-12.498285" />
      <path d="M -11.494535,-0.104739 A 11.5,9.697776435048617 180.0 0,1 11.454543,-0.104739" />
      <path d="M 12.596837,-0.35899 A 2.5,2.10821226848883 180.0 0,1 17.357111,-0.35899" />
      <path d="M 29.455797,-1.071536 A 1.0,0.843284907395532 -4.2534332645189994e-16 0,0 27.492696,-1.071536" />
      <line x1="-36.564233" y1="2.677682" x2="-36.564233" y2="4.290083" />
      <line x1="4.044326" y1="30.067505" x2="4.044326" y2="31.679905" />
      <line x1="9.666516" y1="29.540215" x2="9.666516" y2="31.152616" />
      <line x1="37.149522" y1="0.564028" x2="37.149522" y2="2.176428" />
      <line x1="-38.065778" y1="1.655884" x2="-38.065778" y2="0.043484" />
      <line x1="38.025787" y1="0.069519" x2="38.025787" y2="-1.542881" />
    </g>
  </g>
</svg>